<svg width="20" height="12" viewBox="0 0 20 12" fill="none" xmlns="http://www.w3.org/2000/svg">
<path d="M10.1953 12V0H14.9613C15.837 0 16.5674 0.130859 17.1525 0.392578C17.7376 0.654297 18.1774 1.01758 18.4719 1.48242C18.7663 1.94336 18.9136 2.47461 18.9136 3.07617C18.9136 3.54492 18.8206 3.95703 18.6346 4.3125C18.4486 4.66406 18.1929 4.95313 17.8674 5.17969C17.5458 5.40234 17.1777 5.56055 16.7631 5.6543V5.77148C17.2164 5.79102 17.6407 5.91992 18.0359 6.1582C18.4351 6.39648 18.7586 6.73047 19.0066 7.16016C19.2546 7.58594 19.3786 8.09375 19.3786 8.68359C19.3786 9.32031 19.2216 9.88867 18.9078 10.3887C18.5978 10.8848 18.1386 11.2773 17.5303 11.5664C16.9219 11.8555 16.1722 12 15.281 12H10.1953ZM12.712 9.92578H14.7637C15.465 9.92578 15.9765 9.79102 16.2981 9.52148C16.6197 9.24805 16.7805 8.88477 16.7805 8.43164C16.7805 8.09961 16.7011 7.80664 16.5422 7.55273C16.3834 7.29883 16.1567 7.09961 15.8622 6.95508C15.5716 6.81055 15.2248 6.73828 14.8218 6.73828H12.712V9.92578ZM12.712 5.02148H14.5777C14.9226 5.02148 15.2287 4.96094 15.496 4.83984C15.7673 4.71484 15.9804 4.53906 16.1354 4.3125C16.2942 4.08594 16.3737 3.81445 16.3737 3.49805C16.3737 3.06445 16.2206 2.71484 15.9145 2.44922C15.6123 2.18359 15.1822 2.05078 14.6242 2.05078H12.712V5.02148Z" fill="#0F73F6"/>
<path d="M0.621094 12V0H8.50241V2.0918H3.13777V4.95117H7.97932V7.04297H3.13777V12H0.621094Z" fill="#0F73F6"/>
</svg>
