<svg width="16" height="12" viewBox="0 0 16 12" fill="none" xmlns="http://www.w3.org/2000/svg">
<path d="M12.7752 3.93536C12.696 3.65779 12.5847 3.41255 12.4414 3.19962C12.2981 2.98289 12.1227 2.80038 11.9153 2.65209C11.7116 2.5 11.4778 2.38403 11.2137 2.30418C10.9535 2.22434 10.665 2.18441 10.3481 2.18441C9.756 2.18441 9.23551 2.3327 8.78668 2.62928C8.34162 2.92586 7.99463 3.35741 7.7457 3.92395C7.49677 4.48669 7.37231 5.1749 7.37231 5.98859C7.37231 6.80228 7.49489 7.4943 7.74005 8.06464C7.9852 8.63498 8.3322 9.07034 8.78102 9.37072C9.22985 9.6673 9.75977 9.81559 10.3708 9.81559C10.9252 9.81559 11.3986 9.71673 11.7908 9.51901C12.1868 9.31749 12.4886 9.03422 12.696 8.6692C12.9072 8.30418 13.0128 7.87262 13.0128 7.37453L13.5107 7.44867H10.5235V5.58935H15.372V7.06084C15.372 8.08745 15.157 8.96958 14.727 9.70722C14.2971 10.4411 13.7049 11.0076 12.9506 11.4068C12.1963 11.8023 11.3325 12 10.3595 12C9.27322 12 8.31899 11.7586 7.49677 11.2757C6.67455 10.789 6.03337 10.0989 5.57323 9.20532C5.11686 8.30799 4.88867 7.24335 4.88867 6.01141C4.88867 5.06464 5.02445 4.22053 5.29601 3.47909C5.57134 2.73384 5.95605 2.10266 6.45014 1.58555C6.94423 1.06844 7.5194 0.674905 8.17567 0.404943C8.83194 0.134981 9.5429 0 10.3085 0C10.9648 0 11.5758 0.0969583 12.1416 0.290875C12.7073 0.480989 13.2089 0.750951 13.6465 1.10076C14.0877 1.45057 14.4479 1.86692 14.727 2.34981C15.0061 2.8289 15.1853 3.35741 15.2645 3.93536H12.7752Z" fill="#0F73F6"/>
<path d="M3.07664 0.160156V11.8408H0.626953V0.160156H3.07664Z" fill="#0F73F6"/>
</svg>
