<svg width="56" height="56" viewBox="0 0 56 56" fill="none" xmlns="http://www.w3.org/2000/svg">
<rect width="56" height="56" rx="10" fill="#0F73F6"/>
<path d="M41.4219 14.1395C35.4768 13.392 29.6847 15.5667 25.2784 19.7571C18.9586 18.8902 15.0316 23.9252 14.4567 28.0375C14.3984 28.3546 14.6918 28.6587 15.0103 28.6121C15.0103 28.6121 19.752 28.0361 19.752 28.0361C20.0886 28.373 20.5085 28.791 21.033 29.3134L20.2222 30.9486C19.9365 31.5257 20.0503 32.2196 20.5059 32.6751L23.3237 35.493C23.7809 35.9506 24.4781 36.0609 25.0503 35.7762L26.6831 34.9669C27.3092 35.5932 27.8248 36.1088 28.1348 36.4188C28.2921 36.5763 28.5338 36.6095 28.7271 36.5047C30.2907 35.6549 32.8608 34.062 35.3253 31.6701C35.5959 36.5128 31.8166 39.6967 28.4638 40.4177C28.4639 40.4178 28.6846 38.6053 28.6846 38.6053C28.752 37.9482 27.7803 37.8335 27.6924 38.4842C27.6924 38.4842 27.3872 40.9891 27.3872 40.9891C27.3682 41.1453 27.4233 41.3011 27.5366 41.41C27.6498 41.5194 27.8094 41.5683 27.9634 41.5433C31.8356 41.0014 37.1156 37.2456 36.2452 30.7308C40.0058 26.9488 42.7407 20.5029 41.8592 14.5769C41.832 14.3475 41.6514 14.1668 41.4219 14.1395ZM24.606 34.8802C24.4151 34.9759 24.1826 34.9378 24.0308 34.786L21.2129 31.9681C21.0611 31.8162 21.023 31.5848 21.1182 31.3929L21.7794 30.0589C23.0729 31.355 24.6427 32.9259 25.9371 34.2208L24.606 34.8802ZM40.7154 20.0775C39.1914 28.5682 31.9624 33.5452 28.5757 35.4456C26.9255 33.7964 22.8277 29.6895 20.5532 27.4227C21.2892 26.0903 22.5089 24.2862 23.5689 23.0296C23.9841 22.5245 23.2172 21.8897 22.7983 22.3919C21.6908 23.6985 20.3616 25.6776 19.6202 27.0444C19.6202 27.0444 15.5796 27.5355 15.5796 27.5355C15.9258 26.1307 16.9873 23.1966 19.9981 21.617C22.1436 20.4906 24.2715 20.6082 25.3491 20.7772C25.5013 20.7961 25.6603 20.7613 25.7779 20.6536C29.8976 16.6729 35.3021 14.4994 40.9092 15.0897C41.0747 16.7767 41.0098 18.4525 40.7154 20.0775Z" fill="white"/>
<path d="M20.5592 35.4594C17.1071 32.385 14.0492 38.4532 14.0017 41.4691C13.9763 41.7605 14.2414 42.0254 14.5324 41.9999C17.5409 41.9529 23.5948 38.9072 20.5592 35.4594ZM19.6169 38.848C18.8429 39.5385 17.9626 40.077 17.0011 40.4481C16.3747 40.6894 15.7233 40.8554 15.0573 40.9442C15.2817 39.2499 16.0137 37.6583 17.1584 36.3788C18.9413 34.2938 21.7242 37.0347 19.6169 38.848Z" fill="white"/>
<path d="M29.6754 20.6436C27.1496 23.1193 28.9798 27.5382 32.5163 27.5024C36.0557 27.532 37.8783 23.132 35.3574 20.6435C33.7911 19.0772 31.2418 19.0772 29.6754 20.6436ZM34.6505 25.6187C31.7435 28.354 27.6474 24.256 30.3825 21.3505C33.3069 18.6269 37.3737 22.6946 34.6505 25.6187Z" fill="white"/>
</svg>
