<svg width="79" height="18" viewBox="0 0 79 18" fill="none" xmlns="http://www.w3.org/2000/svg">
<path d="M0.346955 16.5V1.6H6.06696C7.09362 1.6 8.00029 1.78 8.78696 2.14C9.58696 2.5 10.2136 3.03333 10.667 3.74C11.1203 4.44667 11.347 5.32 11.347 6.36C11.347 7.37333 11.1136 8.23333 10.647 8.94C10.1936 9.64667 9.56696 10.1867 8.76696 10.56C7.98029 10.92 7.08029 11.1 6.06696 11.1H3.44695V16.5H0.346955ZM3.44695 8.4H6.08695C6.52695 8.4 6.90695 8.31333 7.22696 8.14C7.54696 7.96667 7.79362 7.72667 7.96696 7.42C8.15362 7.11333 8.24696 6.76 8.24696 6.36C8.24696 5.94667 8.15362 5.58667 7.96696 5.28C7.79362 4.97333 7.54696 4.73333 7.22696 4.56C6.90695 4.38667 6.52695 4.3 6.08695 4.3H3.44695V8.4ZM12.7152 16.5V5.58H15.7152V16.5H12.7152ZM12.7152 4.6V1.6H15.7152V4.6H12.7152ZM16.6505 16.5L20.4705 11.02L16.6305 5.58H20.1105L22.9905 9.82H21.4705L24.3505 5.58H27.8305L23.9905 11.02L27.7905 16.5H24.3305L21.5105 12.26H22.9505L20.1305 16.5H16.6505ZM28.7512 16.5V5.58H31.5512V8.24L31.2512 7.8C31.4112 6.96 31.7978 6.34 32.4112 5.94C33.0245 5.54 33.7578 5.34 34.6112 5.34C35.5178 5.34 36.3112 5.57333 36.9912 6.04C37.6845 6.49333 38.1178 7.10667 38.2912 7.88L37.4312 7.96C37.7912 7.06667 38.3045 6.40667 38.9712 5.98C39.6378 5.55333 40.4178 5.34 41.3112 5.34C42.0978 5.34 42.7912 5.51333 43.3912 5.86C44.0045 6.20667 44.4845 6.69333 44.8312 7.32C45.1778 7.93333 45.3512 8.65333 45.3512 9.48V16.5H42.3512V10.12C42.3512 9.69333 42.2712 9.32667 42.1112 9.02C41.9645 8.71333 41.7512 8.47333 41.4712 8.3C41.1912 8.12667 40.8512 8.04 40.4512 8.04C40.0645 8.04 39.7245 8.12667 39.4312 8.3C39.1512 8.47333 38.9312 8.71333 38.7712 9.02C38.6245 9.32667 38.5512 9.69333 38.5512 10.12V16.5H35.5512V10.12C35.5512 9.69333 35.4712 9.32667 35.3112 9.02C35.1645 8.71333 34.9512 8.47333 34.6712 8.3C34.3912 8.12667 34.0512 8.04 33.6512 8.04C33.2645 8.04 32.9245 8.12667 32.6312 8.3C32.3512 8.47333 32.1312 8.71333 31.9712 9.02C31.8245 9.32667 31.7512 9.69333 31.7512 10.12V16.5H28.7512ZM50.3054 16.74C49.5187 16.74 48.8387 16.6133 48.2654 16.36C47.6921 16.1067 47.2521 15.7467 46.9454 15.28C46.6387 14.8 46.4854 14.2333 46.4854 13.58C46.4854 12.9667 46.6254 12.4267 46.9054 11.96C47.1854 11.48 47.6121 11.08 48.1854 10.76C48.7721 10.44 49.4987 10.2133 50.3654 10.08L53.7054 9.54V11.74L50.9054 12.24C50.4787 12.32 50.1521 12.46 49.9254 12.66C49.6987 12.8467 49.5854 13.12 49.5854 13.48C49.5854 13.8133 49.7121 14.0733 49.9654 14.26C50.2187 14.4467 50.5321 14.54 50.9054 14.54C51.3987 14.54 51.8321 14.4333 52.2054 14.22C52.5787 14.0067 52.8654 13.72 53.0654 13.36C53.2787 12.9867 53.3854 12.58 53.3854 12.14V9.3C53.3854 8.88667 53.2187 8.54 52.8854 8.26C52.5654 7.98 52.1254 7.84 51.5654 7.84C51.0321 7.84 50.5587 7.98667 50.1454 8.28C49.7454 8.57333 49.4521 8.96 49.2654 9.44L46.8654 8.3C47.0787 7.68667 47.4187 7.16 47.8854 6.72C48.3521 6.28 48.9121 5.94 49.5654 5.7C50.2187 5.46 50.9321 5.34 51.7054 5.34C52.6254 5.34 53.4387 5.50667 54.1454 5.84C54.8521 6.17333 55.3987 6.64 55.7854 7.24C56.1854 7.82667 56.3854 8.51333 56.3854 9.3V16.5H53.5854V14.74L54.2654 14.62C53.9454 15.1 53.5921 15.5 53.2054 15.82C52.8187 16.1267 52.3854 16.3533 51.9054 16.5C51.4254 16.66 50.8921 16.74 50.3054 16.74ZM58.1855 16.5V5.58H60.9855V8.2L60.7855 7.82C61.0255 6.9 61.4189 6.28 61.9655 5.96C62.5255 5.62667 63.1855 5.46 63.9455 5.46H64.5855V8.06H63.6455C62.9122 8.06 62.3189 8.28667 61.8655 8.74C61.4122 9.18 61.1855 9.80667 61.1855 10.62V16.5H58.1855ZM71.151 16.62C69.831 16.62 68.8043 16.2667 68.071 15.56C67.351 14.84 66.991 13.84 66.991 12.56V8.18H65.151V5.58H65.251C65.811 5.58 66.2377 5.44 66.531 5.16C66.8377 4.88 66.991 4.46 66.991 3.9V3.1H69.991V5.58H72.551V8.18H69.991V12.36C69.991 12.7333 70.0577 13.0467 70.191 13.3C70.3243 13.54 70.531 13.72 70.811 13.84C71.091 13.96 71.4377 14.02 71.851 14.02C71.9443 14.02 72.051 14.0133 72.171 14C72.291 13.9867 72.4177 13.9733 72.551 13.96V16.5C72.351 16.5267 72.1243 16.5533 71.871 16.58C71.6177 16.6067 71.3777 16.62 71.151 16.62ZM75.389 16.5V13.5H78.389V16.5H75.389Z" fill="#0F73F6"/>
</svg>
