<svg width="56" height="56" viewBox="0 0 56 56" fill="none" xmlns="http://www.w3.org/2000/svg">
<rect width="56" height="56" rx="10" fill="#0F73F6"/>
<g clip-path="url(#clip0_1159_3164)">
<path d="M27.9993 12.498C21.3778 12.498 16 17.8795 16 24.501C16 31.1225 21.3778 36.5003 27.9993 36.5003C34.6207 36.5003 39.9985 31.1225 39.9985 24.501C39.9985 17.8795 34.6207 12.498 27.9993 12.498ZM27.9993 13.4983C34.0803 13.4983 38.9983 18.42 38.9983 24.501C38.9983 30.582 34.0803 35.5 27.9993 35.5C21.9182 35.5 17.0002 30.582 17.0002 24.501C17.0002 18.42 21.9182 13.4983 27.9993 13.4983Z" fill="white"/>
<path d="M28.0005 15.498C23.0358 15.498 19.002 19.5356 19.002 24.5003C19.002 29.4649 23.0358 33.4988 28.0005 33.4988C32.9651 33.4988 36.999 29.4649 36.999 24.5003C36.999 19.5356 32.9651 15.498 28.0005 15.498ZM28.0005 16.4983C32.4247 16.4983 35.9988 20.0761 35.9988 24.5003C35.9988 28.9245 32.4247 32.4985 28.0005 32.4985C23.5763 32.4985 19.9985 28.9245 19.9985 24.5003C19.9985 20.0761 23.5763 16.4983 28.0005 16.4983Z" fill="white"/>
<path d="M18.5476 31.373L13.8527 39.5042C13.8053 39.5875 13.7827 39.6826 13.7878 39.7783C13.7929 39.874 13.8254 39.9663 13.8814 40.044C13.9374 40.1218 14.0145 40.1819 14.1037 40.217C14.1928 40.2522 14.2902 40.261 14.3842 40.2424L19.1677 39.2975L20.74 43.9149C20.7708 44.0062 20.8273 44.0867 20.9028 44.1467C20.9783 44.2067 21.0694 44.2436 21.1654 44.2529C21.2613 44.2623 21.3579 44.2437 21.4435 44.1994C21.5292 44.1552 21.6002 44.0871 21.648 44.0034L26.2469 36.0384L25.3796 35.5364L21.3306 42.5455L19.9723 38.5593C19.9332 38.4452 19.854 38.3491 19.7496 38.2887C19.6451 38.2284 19.5224 38.2078 19.4039 38.2308L15.2701 39.0465L19.4113 31.875L18.5476 31.373Z" fill="white"/>
<path d="M37.4532 31.373L36.5895 31.875L40.7308 39.0465L36.5969 38.2308C36.4785 38.2078 36.3557 38.2284 36.2513 38.2887C36.1468 38.3491 36.0677 38.4452 36.0285 38.5593L34.6702 42.5455L30.6213 35.5364L29.7539 36.0384L34.3528 44.0035C34.4007 44.0871 34.4717 44.1552 34.5573 44.1995C34.6429 44.2437 34.7395 44.2623 34.8355 44.2529C34.9314 44.2436 35.0226 44.2067 35.098 44.1467C35.1735 44.0867 35.23 44.0062 35.2608 43.9149L36.8331 39.2975L41.6166 40.2424C41.7106 40.261 41.808 40.2522 41.8972 40.217C41.9863 40.1819 42.0635 40.1218 42.1195 40.044C42.1755 39.9663 42.208 39.874 42.213 39.7783C42.2181 39.6826 42.1956 39.5875 42.1481 39.5042L37.4532 31.373Z" fill="white"/>
<path d="M28.0009 18.9316C27.6461 18.9316 27.5856 19.0869 27.4915 19.1826C26.9451 19.8142 26.2101 21.1146 25.9377 21.5448C25.0183 21.7748 24.0419 21.9648 23.2137 22.2904C23.0936 22.3503 22.9284 22.3627 22.8188 22.7001C22.7092 23.0375 22.8343 23.1421 22.8963 23.2611C23.2991 23.9358 24.4438 25.2035 24.6643 25.4683C24.6084 26.4751 24.4696 27.3823 24.5314 28.2882C24.5512 28.4209 24.5102 28.5816 24.7972 28.7901C25.0842 28.9987 25.2258 28.912 25.3582 28.8898C26.1454 28.6992 27.559 28.0691 28.0009 27.8932C28.8878 28.2304 29.7696 28.6647 30.6436 28.8898C30.776 28.912 30.9176 28.9987 31.2046 28.7901C31.4916 28.5816 31.4505 28.4209 31.4704 28.2882C31.5373 27.508 31.3604 25.8109 31.3375 25.4683C31.8485 24.8707 32.3955 24.2302 32.8766 23.6154C33.1515 23.3171 33.2633 23 33.1829 22.7001C33.1025 22.4 32.9082 22.3503 32.788 22.2904C31.9052 21.9405 30.9694 21.7733 30.0641 21.5448C29.5435 20.7501 29.0864 19.8786 28.5102 19.1826C28.4162 19.0869 28.3557 18.9316 28.0009 18.9316ZM28.0009 20.146C28.4401 20.787 28.8083 21.4388 29.2263 22.0763C29.2937 22.1714 29.3173 22.2369 29.4773 22.3531C29.6373 22.4694 29.7019 22.4697 29.8131 22.5045C30.5608 22.7041 31.2904 22.8664 32.0277 23.0729C31.5592 23.6927 31.0487 24.2413 30.5735 24.8372C30.5039 24.9307 30.45 24.9702 30.3889 25.1583C30.3278 25.3463 30.347 25.4108 30.3483 25.5274C30.3855 26.3019 30.4574 27.0459 30.4923 27.8121C29.662 27.5247 28.7753 27.059 28.0009 26.893C27.8031 26.893 27.7496 26.9333 27.6392 26.9705C26.9141 27.2444 26.2272 27.5426 25.5095 27.8121C25.534 27.034 25.6181 26.2904 25.6535 25.5274C25.6548 25.4108 25.674 25.3463 25.6129 25.1583C25.5517 24.9702 25.4979 24.9307 25.4283 24.8372C24.954 24.2397 24.3921 23.6051 23.9741 23.0729C24.719 22.8526 25.4528 22.7026 26.1886 22.5045C26.2999 22.4697 26.3645 22.4694 26.5245 22.3531C26.6845 22.2369 26.7081 22.1714 26.7755 22.0763C27.0392 21.6877 27.2964 21.2523 27.5211 20.8842C27.6932 20.6042 27.8607 20.3434 28.0009 20.146Z" fill="white"/>
</g>
<defs>
<clipPath id="clip0_1159_3164">
<rect width="32" height="32" fill="white" transform="translate(12 12)"/>
</clipPath>
</defs>
</svg>
