<svg width="64" height="64" viewBox="0 0 64 64" fill="none" xmlns="http://www.w3.org/2000/svg">
<path d="M12.5342 16.7995C9.86758 19.7328 8.26758 22.9328 8.26758 28.2661C8.26758 37.5995 14.9342 45.8661 24.2676 50.1328L26.6676 46.6661C17.8676 41.8661 16.0009 35.7328 15.4676 31.7328C16.8009 32.5328 18.6676 32.7995 20.5342 32.5328C25.3342 31.9995 29.0676 28.2661 29.0676 23.1995C29.0676 20.7995 28.0009 18.3995 26.4009 16.5328C24.5342 14.6661 22.4009 13.8661 19.7342 13.8661C16.8009 13.8661 14.1342 15.1995 12.5342 16.7995ZM39.2009 16.7995C36.5342 19.7328 34.9342 22.9328 34.9342 28.2661C34.9342 37.5995 41.6009 45.8661 50.9342 50.1328L53.3342 46.6661C44.5342 41.8661 42.6676 35.7328 42.1342 31.7328C43.4676 32.5328 45.3342 32.7995 47.2009 32.5328C52.0009 31.9995 55.7342 28.2661 55.7342 23.1995C55.7342 20.7995 54.6676 18.3995 53.0676 16.5328C51.4676 14.6661 49.0676 13.8661 46.4009 13.8661C43.4676 13.8661 40.8009 15.1995 39.2009 16.7995Z" fill="#0F73F6"/>
</svg>
