<svg width="56" height="56" viewBox="0 0 56 56" fill="none" xmlns="http://www.w3.org/2000/svg">
<rect width="56" height="56" rx="10" fill="#0F73F6"/>
<g clip-path="url(#clip0_1159_3309)">
<path d="M40.1169 18.4791L28.0899 12.0705C27.9115 11.9753 27.6977 11.9766 27.5206 12.0739L15.8264 18.4825C15.6346 18.5877 15.5156 18.7889 15.5156 19.0077V27.379C15.5226 34.2604 19.5997 40.4859 25.9047 43.2428L27.5279 43.9502C27.6796 44.0163 27.8524 44.0167 28.0044 43.9508L29.8334 43.1609C36.2554 40.4639 40.4333 34.1782 40.434 27.2129V19.0077C40.434 18.7865 40.3121 18.583 40.1169 18.4791ZM39.2365 27.2129C39.2352 33.6981 35.3442 39.5497 29.3646 42.0593L29.3606 42.0613L27.7678 42.749L26.3839 42.1452C20.5149 39.5791 16.7195 33.7846 16.7128 27.379V19.3622L27.8123 13.2791L39.2365 19.3666V27.2129Z" fill="white"/>
<path d="M23.3962 26.9911C23.1813 26.7395 22.8034 26.7098 22.5518 26.9246C22.3002 27.1392 22.2705 27.5174 22.4853 27.7687L25.6482 31.4725C25.8594 31.7197 26.2292 31.7535 26.4812 31.5483L33.8474 25.5554C34.104 25.3469 34.1428 24.9697 33.9339 24.713C33.7255 24.4568 33.3482 24.4177 33.0916 24.6265L26.1791 30.2499L23.3962 26.9911Z" fill="white"/>
</g>
<defs>
<clipPath id="clip0_1159_3309">
<rect width="32" height="32" fill="white" transform="translate(12 12)"/>
</clipPath>
</defs>
</svg>
