<svg aria-hidden="true" style="position: absolute; width: 0; height: 0; overflow: hidden;" version="1.1" xmlns="http://www.w3.org/2000/svg" xmlns:xlink="http://www.w3.org/1999/xlink">
<defs>
<symbol id="icon-arrow-down" viewBox="0 0 32 32">
<path fill="#0f73f6" style="fill: var(--color1, #0f73f6)" d="M15.75 23c-0.32 0-0.64-0.122-0.884-0.366l-12.5-12.5c-0.488-0.488-0.488-1.279 0-1.768s1.279-0.488 1.768 0l11.616 11.616 11.616-11.616c0.488-0.488 1.279-0.488 1.767 0s0.488 1.279 0 1.768l-12.5 12.5c-0.244 0.244-0.564 0.366-0.884 0.366z"></path>
</symbol>
<symbol id="icon-arrow-down-s" viewBox="0 0 16 16" fill="none">
<path d="M7.87504 11.5C7.7152 11.5 7.5552 11.4389 7.43316 11.3169L1.18316 5.06691C0.938945 4.8227 0.938945 4.42723 1.18316 4.18316C1.42738 3.9391 1.82285 3.93895 2.06691 4.18316L7.87504 9.99129L13.6832 4.18316C13.9274 3.93895 14.3229 3.93895 14.5669 4.18316C14.811 4.42738 14.8111 4.82285 14.5669 5.06691L8.31692 11.3169C8.19488 11.4389 8.03488 11.5 7.87504 11.5Z" fill="#0F73F6"/>
</symbol>
<symbol id="icon-arrow-left" viewBox="0 0 32 32">
<path fill="#0f73f6" style="fill: var(--color1, #0f73f6)" d="M8.25 15.5c0-0.32 0.122-0.64 0.366-0.884l12.5-12.5c0.488-0.488 1.279-0.488 1.768 0s0.488 1.279 0 1.768l-11.616 11.616 11.616 11.616c0.488 0.488 0.488 1.279 0 1.767s-1.279 0.488-1.768 0l-12.5-12.5c-0.244-0.244-0.366-0.564-0.366-0.884z"></path>
</symbol>
<symbol id="icon-arrow-left-m" viewBox="0 0 24 24" fill="none">
<path d="M8.125 11.75C8.125 11.5902 8.18609 11.4302 8.30812 11.3082L14.5581 5.05816C14.8023 4.81395 15.1978 4.81395 15.4419 5.05816C15.6859 5.30238 15.6861 5.69785 15.4419 5.94191L9.63375 11.75L15.4419 17.5582C15.6861 17.8024 15.6861 18.1979 15.4419 18.4419C15.1977 18.686 14.8022 18.6861 14.5581 18.4419L8.30812 12.1919C8.18609 12.0699 8.125 11.9099 8.125 11.75Z" fill="#222222"/>
</symbol>
<symbol id="icon-arrow-right" viewBox="0 0 32 32">
<path fill="#0f73f6" style="fill: var(--color1, #0f73f6)" d="M23.25 15.5c0-0.32-0.122-0.64-0.366-0.884l-12.5-12.5c-0.488-0.488-1.279-0.488-1.768 0s-0.488 1.279 0 1.768l11.616 11.616-11.616 11.616c-0.488 0.488-0.488 1.279 0 1.767s1.279 0.488 1.768 0l12.5-12.5c0.244-0.244 0.366-0.564 0.366-0.884z"></path>
</symbol>
<symbol id="icon-arrow-right-s" viewBox="0 0 32 32">
<path fill="#0f73f6" style="fill: var(--color1, #0f73f6)" d="M23.25 15.5c0-0.32-0.122-0.64-0.366-0.884l-12.5-12.5c-0.488-0.488-1.279-0.488-1.768 0s-0.488 1.279 0 1.768l11.616 11.616-11.616 11.616c-0.488 0.488-0.488 1.279 0 1.767s1.279 0.488 1.768 0l12.5-12.5c0.244-0.244 0.366-0.564 0.366-0.884z"></path>
</symbol>
<symbol id="icon-arrow-right-m" viewBox="0 0 24 24" fill="none">
<path d="M15.625 11.75C15.625 11.5902 15.5639 11.4302 15.4419 11.3082L9.19191 5.05816C8.9477 4.81395 8.55223 4.81395 8.30816 5.05816C8.0641 5.30238 8.06395 5.69785 8.30816 5.94191L14.1163 11.75L8.30816 17.5582C8.06395 17.8024 8.06395 18.1979 8.30816 18.4419C8.55238 18.686 8.94785 18.6861 9.19191 18.4419L15.4419 12.1919C15.5639 12.0699 15.625 11.9099 15.625 11.75Z" fill="#222222"/>
</symbol>
<symbol id="icon-arrow-up" viewBox="0 0 32 32">
<path fill="#0f73f6" style="fill: var(--color1, #0f73f6)" d="M15.75 8c-0.32 0-0.64 0.122-0.884 0.366l-12.5 12.5c-0.488 0.488-0.488 1.279 0 1.767s1.279 0.489 1.768 0l11.616-11.616 11.616 11.616c0.488 0.489 1.279 0.489 1.767 0s0.488-1.279 0-1.767l-12.5-12.5c-0.244-0.244-0.564-0.366-0.884-0.366z"></path>
</symbol>
<symbol id="icon-arrow-up-s" viewBox="0 0 16 16" fill="none">
<path d="M7.87504 3.99996C7.7152 3.99996 7.5552 4.06105 7.43316 4.18309L1.18316 10.4331C0.938945 10.6773 0.938945 11.0728 1.18316 11.3168C1.42738 11.5609 1.82285 11.5611 2.06691 11.3168L7.87504 5.50871L13.6832 11.3168C13.9274 11.5611 14.3229 11.5611 14.5669 11.3168C14.811 11.0726 14.8111 10.6771 14.5669 10.4331L8.31692 4.18309C8.19488 4.06105 8.03488 3.99996 7.87504 3.99996Z" fill="#0F73F6"/>
</symbol>
<symbol id="icon-calendar" viewBox="0 0 32 32">
<path fill="#0f73f6" style="fill: var(--color1, #0f73f6)" d="M10 3.333c0-0.736-0.597-1.333-1.333-1.333s-1.333 0.597-1.333 1.333v1.333c0 0.736 0.597 1.333 1.333 1.333s1.333-0.597 1.333-1.333v-1.333z"></path>
<path fill="#0f73f6" style="fill: var(--color1, #0f73f6)" d="M24.667 3.333c0-0.736-0.597-1.333-1.333-1.333s-1.333 0.597-1.333 1.333v1.333c0 0.736 0.597 1.333 1.333 1.333s1.333-0.597 1.333-1.333v-1.333z"></path>
<path fill="#0f73f6" style="fill: var(--color1, #0f73f6)" d="M2.667 12v15.333c0 1.473 1.194 2.667 2.667 2.667h21.333c1.473 0 2.667-1.194 2.667-2.667v-15.333h-26.667zM10.667 25.333c0 0.737-0.597 1.333-1.333 1.333h-1.333c-0.737 0-1.333-0.597-1.333-1.333v-1.333c0-0.737 0.597-1.333 1.333-1.333h1.333c0.737 0 1.333 0.597 1.333 1.333v1.333zM10.667 18c0 0.737-0.597 1.333-1.333 1.333h-1.333c-0.737 0-1.333-0.597-1.333-1.333v-1.333c0-0.737 0.597-1.333 1.333-1.333h1.333c0.737 0 1.333 0.597 1.333 1.333v1.333zM18 25.333c0 0.737-0.597 1.333-1.333 1.333h-1.333c-0.737 0-1.333-0.597-1.333-1.333v-1.333c0-0.737 0.597-1.333 1.333-1.333h1.333c0.737 0 1.333 0.597 1.333 1.333v1.333zM18 18c0 0.737-0.597 1.333-1.333 1.333h-1.333c-0.737 0-1.333-0.597-1.333-1.333v-1.333c0-0.737 0.597-1.333 1.333-1.333h1.333c0.737 0 1.333 0.597 1.333 1.333v1.333zM25.333 25.333c0 0.737-0.597 1.333-1.333 1.333h-1.333c-0.737 0-1.333-0.597-1.333-1.333v-1.333c0-0.737 0.597-1.333 1.333-1.333h1.333c0.737 0 1.333 0.597 1.333 1.333v1.333zM25.333 18c0 0.737-0.597 1.333-1.333 1.333h-1.333c-0.737 0-1.333-0.597-1.333-1.333v-1.333c0-0.737 0.597-1.333 1.333-1.333h1.333c0.737 0 1.333 0.597 1.333 1.333v1.333z"></path>
<path fill="#0f73f6" style="fill: var(--color1, #0f73f6)" d="M29.333 10.667v-4c0-1.473-1.194-2.667-2.667-2.667h-0.667v0.667c0 1.471-1.196 2.667-2.667 2.667s-2.667-1.196-2.667-2.667v-0.667h-9.333v0.667c0 1.471-1.196 2.667-2.667 2.667s-2.667-1.196-2.667-2.667v-0.667h-0.667c-1.473 0-2.667 1.194-2.667 2.667v4h26.667z"></path>
</symbol>
<symbol id="icon-cart" viewBox="0 0 16 19" fill="none">
<path d="M1.52616 5.66849C1.40575 5.66849 1.30814 5.7661 1.30814 5.88651V17.2237C1.30814 17.3442 1.40575 17.4417 1.52616 17.4417H13.7355C13.8559 17.4417 13.9535 17.3442 13.9535 17.2237V5.88651C13.9535 5.7661 13.8559 5.66849 13.7355 5.66849H1.52616ZM0 5.88651C0 5.04364 0.683285 4.36035 1.52616 4.36035H13.7355C14.5783 4.36035 15.2616 5.04364 15.2616 5.88651V17.2237C15.2616 18.0666 14.5783 18.7499 13.7355 18.7499H1.52616C0.683285 18.7499 0 18.0666 0 17.2237V5.88651Z" fill="#0F73F6"/>
<path d="M7.63022 1.30814C6.30569 1.30814 5.23197 2.38188 5.23197 3.7064V6.75872C5.23197 7.11995 4.93913 7.41279 4.5779 7.41279C4.21667 7.41279 3.92383 7.11995 3.92383 6.75872V3.7064C3.92383 1.65941 5.58324 0 7.63022 0C9.6772 0 11.3366 1.65941 11.3366 3.7064V6.75872C11.3366 7.11995 11.0438 7.41279 10.6825 7.41279C10.3213 7.41279 10.0285 7.11995 10.0285 6.75872V3.7064C10.0285 2.38188 8.95476 1.30814 7.63022 1.30814Z" fill="#0F73F6"/>
</symbol>

<symbol id="icon-check-m" viewBox="0 0 32 32">
<path fill="#fff" style="fill: var(--color2, #fff)" d="M31.531 4.718c-0.625-0.625-1.638-0.625-2.263 0l-19.169 19.169-7.368-7.368c-0.625-0.625-1.638-0.625-2.263 0s-0.625 1.638 0 2.263l8.5 8.5c0.625 0.625 1.638 0.624 2.263 0l20.3-20.3c0.625-0.625 0.625-1.638 0-2.263z"></path>
</symbol>
<symbol id="icon-check-s" viewBox="0 0 32 32">
<path fill="#fff" style="fill: var(--color2, #fff)" d="M23.929 10.24c-0.319-0.319-0.836-0.319-1.155 0l-9.788 9.788-3.762-3.762c-0.319-0.319-0.836-0.319-1.155 0s-0.319 0.836 0 1.155l4.34 4.34c0.319 0.319 0.837 0.319 1.155 0l10.366-10.366c0.319-0.319 0.319-0.836 0-1.155z"></path>
</symbol>
<symbol id="icon-clock" viewBox="0 0 32 32">
<path fill="#0f73f6" style="fill: var(--color1, #0f73f6)" d="M16 1.333c-2.901 0-5.736 0.86-8.148 2.472s-4.292 3.902-5.402 6.582c-1.11 2.68-1.401 5.629-0.835 8.474s1.963 5.458 4.014 7.51c2.051 2.051 4.665 3.448 7.51 4.014s5.794 0.275 8.474-0.835c2.68-1.11 4.971-2.99 6.582-5.402s2.472-5.248 2.472-8.148c-0.005-3.888-1.551-7.616-4.301-10.366s-6.477-4.296-10.366-4.301zM20.943 20.943c-0.25 0.25-0.589 0.39-0.943 0.39s-0.693-0.14-0.943-0.39l-4-4c-0.25-0.25-0.391-0.589-0.391-0.943v-8c0-0.354 0.141-0.693 0.391-0.943s0.589-0.391 0.943-0.391c0.354 0 0.693 0.14 0.943 0.391s0.391 0.589 0.391 0.943v7.448l3.609 3.609c0.25 0.25 0.39 0.589 0.39 0.943s-0.14 0.693-0.39 0.943z"></path>
</symbol>
<symbol id="icon-close" viewBox="0 0 32 32">
<path fill="#0f73f6" style="fill: var(--color1, #0f73f6)" d="M4.242 27.090c0.077 0.077 0.169 0.139 0.27 0.181s0.21 0.063 0.319 0.063 0.218-0.022 0.319-0.063c0.101-0.042 0.193-0.103 0.27-0.181l10.242-10.242 10.246 10.242c0.156 0.156 0.369 0.244 0.59 0.244s0.433-0.088 0.59-0.244c0.156-0.156 0.244-0.368 0.244-0.59s-0.088-0.433-0.244-0.589l-10.246-10.242 10.242-10.246c0.156-0.156 0.244-0.368 0.244-0.59s-0.088-0.433-0.244-0.59c-0.156-0.156-0.368-0.244-0.59-0.244s-0.433 0.088-0.59 0.244l-10.242 10.246-10.246-10.242c-0.159-0.137-0.364-0.208-0.574-0.2s-0.409 0.095-0.557 0.243c-0.148 0.148-0.235 0.347-0.243 0.557s0.063 0.415 0.2 0.574l10.242 10.246-10.242 10.246c-0.155 0.156-0.242 0.367-0.242 0.587s0.087 0.431 0.242 0.587z"></path>
</symbol>
<symbol id="icon-cup" viewBox="0 0 32 32">
<path fill="#fff" style="fill: var(--color2, #fff)" d="M31.062 2.31h-4.106c0.015-0.455 0.023-0.912 0.023-1.372 0-0.518-0.42-0.938-0.937-0.938h-20.084c-0.518 0-0.938 0.42-0.938 0.938 0 0.46 0.008 0.917 0.023 1.372h-4.106c-0.518 0-0.938 0.42-0.938 0.938 0 4.201 1.098 8.164 3.091 11.16 1.97 2.962 4.595 4.66 7.431 4.826 0.643 0.699 1.322 1.27 2.030 1.705v4.167h-1.573c-1.901 0-3.448 1.547-3.448 3.448v1.573h-0.067c-0.518 0-0.938 0.42-0.938 0.937s0.42 0.938 0.938 0.938h17.071c0.518 0 0.937-0.42 0.937-0.938s-0.42-0.937-0.937-0.937h-0.067v-1.573c0-1.901-1.547-3.448-3.448-3.448h-1.573v-4.167c0.708-0.435 1.387-1.005 2.030-1.705 2.835-0.165 5.46-1.864 7.431-4.826 1.993-2.996 3.091-6.959 3.091-11.16 0-0.518-0.42-0.938-0.938-0.938zM4.652 13.368c-1.644-2.471-2.61-5.703-2.758-9.184h3.254c0.338 4.279 1.343 8.234 2.912 11.373 0.25 0.5 0.511 0.972 0.783 1.417-1.559-0.589-3.002-1.82-4.191-3.607zM22.594 28.552v1.573h-13.188v-1.573c0-0.867 0.706-1.573 1.573-1.573h10.041c0.867 0 1.573 0.706 1.573 1.573zM17.573 25.104h-3.146v-3.352c0.515 0.136 1.041 0.206 1.573 0.206s1.058-0.071 1.573-0.206v3.352zM18.153 19.521c-0.042 0.017-0.083 0.038-0.121 0.061-0.663 0.33-1.344 0.5-2.032 0.5s-1.369-0.171-2.031-0.5c-0.039-0.024-0.080-0.045-0.123-0.063-0.735-0.389-1.446-0.976-2.119-1.747-0.035-0.051-0.075-0.097-0.119-0.14-0.668-0.793-1.296-1.768-1.87-2.915-1.723-3.446-2.718-7.976-2.831-12.844h18.186c-0.113 4.868-1.109 9.399-2.831 12.844-0.574 1.147-1.202 2.123-1.869 2.915-0.044 0.042-0.085 0.089-0.12 0.14-0.673 0.771-1.384 1.358-2.119 1.747zM27.348 13.368c-1.189 1.787-2.632 3.018-4.191 3.607 0.271-0.445 0.533-0.917 0.783-1.417 1.57-3.139 2.574-7.095 2.912-11.373h3.254c-0.147 3.481-1.113 6.713-2.758 9.184z"></path>
</symbol>
<symbol id="icon-dot" viewBox="0 0 32 32">
<path fill="#0f73f6" style="fill: var(--color1, #0f73f6)" d="M32 16c0 8.837-7.163 16-16 16s-16-7.163-16-16c0-8.837 7.163-16 16-16s16 7.163 16 16z"></path>
</symbol>
<symbol id="icon-email" viewBox="0 0 32 32">
<path fill="#0f73f6" style="fill: var(--color1, #0f73f6)" d="M18.674 19.606c-0.796 0.531-1.721 0.811-2.674 0.811s-1.878-0.281-2.674-0.811l-13.113-8.742c-0.073-0.049-0.144-0.099-0.213-0.151v14.325c0 1.642 1.333 2.946 2.946 2.946h26.108c1.642 0 2.946-1.333 2.946-2.946v-14.325c-0.070 0.052-0.141 0.103-0.214 0.151l-13.112 8.742z"></path>
<path fill="#0f73f6" style="fill: var(--color1, #0f73f6)" d="M1.253 9.304l13.113 8.742c0.496 0.331 1.065 0.496 1.634 0.496s1.138-0.165 1.634-0.496l13.113-8.742c0.785-0.523 1.253-1.398 1.253-2.342 0-1.624-1.321-2.945-2.945-2.945h-26.11c-1.624 0-2.945 1.321-2.945 2.946 0 0.943 0.469 1.818 1.253 2.341z"></path>
</symbol>
<symbol id="icon-facebook-m" viewBox="0 0 36 32">
<path fill="#0f73f6" style="fill: var(--color1, #0f73f6)" d="M18.915 17.882v-5.647h2.243c0.412 0 0.756 0.062 1.031 0.185s0.482 0.294 0.621 0.513c0.139 0.217 0.208 0.467 0.208 0.75 0 0.221-0.044 0.415-0.131 0.582-0.088 0.165-0.208 0.301-0.361 0.408-0.151 0.105-0.325 0.179-0.52 0.223v0.055c0.213 0.009 0.413 0.070 0.599 0.182 0.188 0.112 0.34 0.269 0.457 0.472 0.117 0.2 0.175 0.439 0.175 0.717 0 0.3-0.074 0.567-0.222 0.802-0.146 0.233-0.362 0.418-0.648 0.554s-0.639 0.204-1.058 0.204h-2.393zM20.1 16.906h0.965c0.33 0 0.571-0.063 0.722-0.19 0.151-0.129 0.227-0.3 0.227-0.513 0-0.156-0.037-0.294-0.112-0.414s-0.181-0.213-0.32-0.281c-0.137-0.068-0.3-0.102-0.49-0.102h-0.993v1.5zM20.1 14.598h0.878c0.162 0 0.306-0.029 0.432-0.085 0.128-0.059 0.228-0.142 0.301-0.248 0.075-0.107 0.112-0.234 0.112-0.383 0-0.204-0.072-0.369-0.216-0.494-0.142-0.125-0.345-0.187-0.607-0.187h-0.9v1.398z"></path>
<path fill="#0f73f6" style="fill: var(--color1, #0f73f6)" d="M14.41 17.882v-5.647h3.709v0.984h-2.525v1.346h2.278v0.984h-2.278v2.333h-1.184z"></path>
</symbol>
<symbol id="icon-facebook-s" viewBox="0 0 35 32">
<path fill="#0f73f6" style="fill: var(--color1, #0f73f6)" d="M17.44 16.289v-4.236h1.682c0.309 0 0.567 0.046 0.773 0.139s0.362 0.221 0.466 0.385c0.104 0.163 0.156 0.35 0.156 0.563 0 0.165-0.033 0.311-0.098 0.436-0.066 0.124-0.156 0.226-0.271 0.306-0.113 0.079-0.243 0.134-0.39 0.168v0.041c0.16 0.007 0.31 0.052 0.449 0.137 0.141 0.084 0.255 0.202 0.343 0.354 0.088 0.15 0.131 0.33 0.131 0.538 0 0.225-0.055 0.425-0.166 0.602-0.109 0.175-0.271 0.314-0.486 0.416s-0.479 0.153-0.794 0.153h-1.795zM18.329 15.557h0.724c0.248 0 0.428-0.048 0.542-0.143 0.114-0.097 0.17-0.225 0.17-0.385 0-0.117-0.028-0.221-0.084-0.31s-0.136-0.16-0.24-0.211c-0.103-0.051-0.225-0.077-0.367-0.077h-0.745v1.125zM18.329 13.826h0.659c0.122 0 0.23-0.021 0.324-0.064 0.096-0.044 0.171-0.106 0.226-0.186 0.056-0.080 0.084-0.176 0.084-0.287 0-0.153-0.054-0.276-0.162-0.37-0.107-0.094-0.259-0.141-0.455-0.141h-0.675v1.049z"></path>
<path fill="#0f73f6" style="fill: var(--color1, #0f73f6)" d="M14.061 16.289v-4.236h2.782v0.738h-1.894v1.009h1.709v0.738h-1.709v1.75h-0.888z"></path>
</symbol>
<symbol id="icon-folder" viewBox="0 0 32 32">
<path fill="#0f73f6" style="fill: var(--color1, #0f73f6)" d="M30.451 13.233c-0.151-0.273-0.373-0.5-0.642-0.658s-0.576-0.241-0.888-0.24h-16.586c-0.559-0-1.103 0.181-1.551 0.517s-0.774 0.807-0.93 1.344l-3.283 11.255c-0.173 0.593-0.533 1.113-1.027 1.483s-1.094 0.571-1.712 0.571h20.858c0.617 0 1.218-0.2 1.712-0.571s0.854-0.891 1.027-1.484l3.151-10.805c0.073-0.232 0.1-0.477 0.077-0.719s-0.093-0.478-0.207-0.693z"></path>
<path fill="#0f73f6" style="fill: var(--color1, #0f73f6)" d="M5.45 25.124l3.285-11.255c0.229-0.778 0.703-1.461 1.352-1.948s1.437-0.751 2.248-0.753h14.837v-0.583c0-0.619-0.246-1.213-0.683-1.65s-1.031-0.684-1.65-0.684h-8.894c-0.174 0-0.346-0.039-0.503-0.113s-0.295-0.183-0.405-0.318l-1.147-1.41c-0.273-0.336-0.618-0.607-1.009-0.793s-0.819-0.282-1.252-0.283h-6.628c-0.619 0-1.213 0.246-1.65 0.684s-0.684 1.031-0.684 1.65v17.504c0 0.309 0.123 0.606 0.342 0.825s0.516 0.342 0.825 0.342c0.364-0.001 0.718-0.12 1.010-0.339s0.504-0.526 0.607-0.875z"></path>
</symbol>
<symbol id="icon-grid" viewBox="0 0 32 32">
<path fill="#fff" style="fill: var(--color2, #fff)" d="M3 3v26h26v-26h-26zM27 15h-10v-10h10v10zM15 5v10h-10v-10h10zM5 17h10v10h-10v-10zM17 27v-10h10v10h-10z"></path>
</symbol>
<symbol id="icon-icon-letters" viewBox="0 0 32 32">
<path fill="#0f73f6" style="fill: var(--color1, #0f73f6)" d="M0.938 16.938c0.518 0 0.938-0.42 0.938-0.938v-0.938h1.875v5.625h-0.938c-0.518 0-0.938 0.42-0.938 0.938s0.42 0.938 0.938 0.938h3.75c0.518 0 0.938-0.42 0.938-0.938s-0.42-0.938-0.938-0.938h-0.938v-5.625h1.875v0.938c0 0.518 0.42 0.938 0.938 0.938s0.938-0.42 0.938-0.938v-1.875c0-0.518-0.42-0.938-0.938-0.938h-7.5c-0.518 0-0.938 0.42-0.938 0.938v1.875c0 0.518 0.42 0.938 0.938 0.938z"></path>
<path fill="#0f73f6" style="fill: var(--color1, #0f73f6)" d="M10.375 11.313c0.518 0 0.938-0.42 0.938-0.938v-0.938h2.813v11.25h-0.938c-0.518 0-0.938 0.42-0.938 0.938s0.42 0.938 0.938 0.938h3.75c0.518 0 0.938-0.42 0.938-0.938s-0.42-0.938-0.938-0.938h-0.938v-11.25h2.813v0.938c0 0.518 0.42 0.938 0.938 0.938s0.938-0.42 0.938-0.938v-1.875c0-0.518-0.42-0.938-0.938-0.938h-9.375c-0.518 0-0.938 0.42-0.938 0.938v1.875c0 0.518 0.42 0.938 0.938 0.938z"></path>
<path fill="#0f73f6" style="fill: var(--color1, #0f73f6)" d="M31.063 1.938h-11.25c-0.518 0-0.938 0.42-0.938 0.938v1.875c0 0.518 0.42 0.938 0.938 0.938s0.938-0.42 0.938-0.938v-0.938h3.75v16.875h-0.938c-0.518 0-0.938 0.42-0.938 0.938s0.42 0.938 0.938 0.938h3.75c0.518 0 0.938-0.42 0.938-0.938s-0.42-0.938-0.938-0.938h-0.938v-16.875h3.75v0.938c0 0.518 0.42 0.938 0.938 0.938s0.938-0.42 0.938-0.938v-1.875c0-0.518-0.42-0.938-0.938-0.938z"></path>
<path fill="#0f73f6" style="fill: var(--color1, #0f73f6)" d="M31.063 24.438c-0.518 0-0.938 0.42-0.938 0.938v0.938h-28.25v-0.938c0-0.518-0.42-0.938-0.938-0.938s-0.938 0.42-0.938 0.938v3.75c0 0.518 0.42 0.938 0.938 0.938s0.938-0.42 0.938-0.938v-0.938h28.25v0.938c0 0.518 0.42 0.938 0.938 0.938s0.938-0.42 0.938-0.938v-3.75c0-0.518-0.42-0.938-0.938-0.938z"></path>
</symbol>
<symbol id="icon-icon-tools" viewBox="0 0 32 32">
<path fill="#0f73f6" style="fill: var(--color1, #0f73f6)" d="M23.39 16.671l0.785-0.785c0-0 0-0.001 0.001-0.001s0-0.001 0.001-0.001l2.771-2.771c0-0 0-0 0-0s0-0 0-0.001l2.771-2.771c0-0 0-0 0-0s0-0 0-0l1.522-1.522c0.489-0.489 0.758-1.138 0.758-1.829s-0.269-1.341-0.758-1.829l-4.402-4.402c-0.489-0.489-1.138-0.758-1.829-0.758s-1.341 0.269-1.829 0.758l-7.852 7.852-5.33-5.33c-0.892-0.892-2.011-1.527-3.234-1.837l-5.597-1.415c-0.32-0.081-0.659 0.012-0.893 0.246s-0.327 0.573-0.246 0.893l1.415 5.597c0.309 1.223 0.944 2.342 1.837 3.234l5.33 5.33-7.853 7.852c-0.489 0.489-0.758 1.138-0.758 1.829s0.269 1.341 0.758 1.829l4.402 4.402c0.489 0.489 1.138 0.758 1.829 0.758s1.341-0.269 1.829-0.758l4.292-4.292c0.001-0.001 0.001-0.001 0.002-0.002s0.001-0.001 0.002-0.002l3.556-3.556 7.219 7.219c0.926 0.926 2.143 1.389 3.359 1.389s2.433-0.463 3.359-1.389c1.852-1.852 1.852-4.866 0-6.718l-7.219-7.219zM3.261 6.305l-1.030-4.074 4.074 1.030c0.896 0.226 1.714 0.691 2.368 1.345l0.739 0.739-4.067 4.067-0.739-0.739c-0.653-0.653-1.118-1.472-1.345-2.368zM6.671 10.738l4.067-4.067 3.265 3.265-4.067 4.067-3.265-3.265zM6.99 30.125c-0.19 0-0.369-0.074-0.504-0.209l-4.402-4.402c-0.135-0.134-0.209-0.313-0.209-0.504s0.074-0.369 0.209-0.504l22.423-22.423c0.134-0.135 0.313-0.209 0.504-0.209s0.369 0.074 0.504 0.209l4.402 4.402c0.134 0.134 0.209 0.313 0.209 0.504s-0.074 0.369-0.209 0.504l-0.859 0.859-2.86-2.86c-0.366-0.366-0.96-0.366-1.326 0s-0.366 0.96 0 1.326l2.86 2.86-1.446 1.446-1.474-1.474c-0.366-0.366-0.96-0.366-1.326 0s-0.366 0.96 0 1.326l1.474 1.474-1.446 1.446-2.86-2.86c-0.366-0.366-0.96-0.366-1.326 0s-0.366 0.96 0 1.326l2.86 2.86-1.446 1.446-1.474-1.474c-0.366-0.366-0.96-0.366-1.326 0s-0.366 0.96 0 1.326l1.474 1.474-1.421 1.421-2.86-2.86c-0.366-0.366-0.96-0.366-1.326 0s-0.366 0.96 0 1.326l2.86 2.86-1.446 1.446-1.474-1.474c-0.366-0.366-0.96-0.366-1.326 0s-0.366 0.96 0 1.326l1.474 1.474-1.446 1.446-2.86-2.86c-0.366-0.366-0.96-0.366-1.326 0s-0.366 0.96 0 1.326l2.86 2.86-1.446 1.446-1.474-1.474c-0.366-0.366-0.96-0.366-1.326 0s-0.366 0.96 0 1.326l1.474 1.474-0.859 0.86c-0.135 0.134-0.313 0.209-0.504 0.209zM18.653 21.408c0.001-0.001 0.003-0.003 0.004-0.004s0.003-0.003 0.004-0.004l2.742-2.742c0-0 0.001-0.001 0.001-0.001s0.001-0.001 0.001-0.001l0.659-0.659 3.973 3.973-4.067 4.067-3.973-3.973 0.656-0.656zM29.283 29.283c-1.121 1.121-2.945 1.121-4.067 0l-1.92-1.92 4.067-4.067 1.92 1.92c1.121 1.121 1.121 2.946-0 4.067z"></path>
</symbol>
<symbol id="icon-instagram-m" viewBox="0 0 36 32">
<path fill="#0f73f6" style="fill: var(--color1, #0f73f6)" d="M20.13 14.087c-0.037-0.131-0.090-0.246-0.157-0.346-0.067-0.102-0.15-0.188-0.248-0.258-0.096-0.072-0.206-0.126-0.33-0.164-0.122-0.038-0.258-0.056-0.407-0.056-0.279 0-0.524 0.070-0.735 0.209-0.209 0.14-0.373 0.343-0.49 0.609-0.117 0.265-0.176 0.589-0.176 0.972s0.058 0.709 0.173 0.977c0.115 0.268 0.279 0.473 0.49 0.615 0.211 0.14 0.461 0.209 0.748 0.209 0.261 0 0.484-0.047 0.668-0.14 0.186-0.095 0.328-0.228 0.426-0.4 0.099-0.172 0.149-0.375 0.149-0.609l0.234 0.035h-1.406v-0.875h2.282v0.692c0 0.483-0.101 0.898-0.304 1.245-0.202 0.345-0.481 0.612-0.836 0.8-0.355 0.186-0.761 0.279-1.219 0.279-0.511 0-0.96-0.114-1.347-0.341-0.387-0.229-0.689-0.554-0.905-0.974-0.215-0.422-0.322-0.923-0.322-1.503 0-0.446 0.064-0.843 0.192-1.192 0.13-0.351 0.311-0.648 0.543-0.891s0.503-0.429 0.812-0.556c0.309-0.127 0.643-0.191 1.004-0.191 0.309 0 0.596 0.046 0.863 0.137 0.266 0.089 0.502 0.217 0.708 0.381 0.208 0.165 0.377 0.361 0.508 0.588 0.131 0.225 0.216 0.474 0.253 0.746h-1.171z"></path>
<path fill="#0f73f6" style="fill: var(--color1, #0f73f6)" d="M15.565 12.311v5.497h-1.153v-5.497h1.153z"></path>
</symbol>
<symbol id="icon-instagram-s" viewBox="0 0 33 32">
<path fill="#0f73f6" style="fill: var(--color1, #0f73f6)" d="M18.19 13.423c-0.029-0.101-0.069-0.19-0.121-0.267-0.052-0.079-0.116-0.145-0.191-0.199-0.074-0.055-0.159-0.097-0.254-0.126-0.094-0.029-0.199-0.043-0.314-0.043-0.215 0-0.404 0.054-0.566 0.161-0.161 0.108-0.287 0.264-0.378 0.47-0.090 0.204-0.135 0.454-0.135 0.749s0.044 0.546 0.133 0.753c0.089 0.207 0.215 0.365 0.378 0.474 0.163 0.108 0.355 0.161 0.577 0.161 0.201 0 0.373-0.036 0.515-0.108 0.144-0.073 0.253-0.176 0.328-0.308 0.077-0.132 0.115-0.289 0.115-0.47l0.181 0.027h-1.083v-0.674h1.758v0.534c0 0.372-0.078 0.692-0.234 0.96-0.156 0.266-0.371 0.472-0.644 0.616-0.274 0.143-0.587 0.215-0.94 0.215-0.394 0-0.74-0.088-1.038-0.263-0.298-0.177-0.531-0.427-0.698-0.751-0.166-0.325-0.248-0.712-0.248-1.158 0-0.343 0.049-0.649 0.148-0.918 0.1-0.27 0.239-0.499 0.419-0.687s0.388-0.33 0.626-0.428c0.238-0.098 0.496-0.147 0.773-0.147 0.238 0 0.46 0.035 0.665 0.105 0.205 0.069 0.387 0.167 0.546 0.294 0.16 0.127 0.291 0.278 0.392 0.453 0.101 0.174 0.166 0.365 0.195 0.575h-0.903z"></path>
<path fill="#0f73f6" style="fill: var(--color1, #0f73f6)" d="M14.672 12.053v4.236h-0.888v-4.236h0.888z"></path>
</symbol>
<symbol id="icon-list" viewBox="0 0 32 32">
<path fill="#0f73f6" style="fill: var(--color1, #0f73f6)" d="M2 6h28v2h-28v-2z"></path>
<path fill="#0f73f6" style="fill: var(--color1, #0f73f6)" d="M2 15h28v2h-28v-2z"></path>
<path fill="#0f73f6" style="fill: var(--color1, #0f73f6)" d="M2 24h28v2h-28v-2z"></path>
</symbol>
<symbol id="icon-location" viewBox="0 0 32 32">
<path fill="#0f73f6" style="fill: var(--color1, #0f73f6)" d="M16 0c-5.881 0-10.667 4.785-10.667 10.667 0 1.766 0.441 3.516 1.281 5.069l8.803 15.921c0.117 0.212 0.341 0.344 0.583 0.344s0.466-0.131 0.583-0.344l8.806-15.926c0.836-1.547 1.277-3.298 1.277-5.064 0-5.881-4.785-10.667-10.667-10.667zM16 16c-2.941 0-5.333-2.393-5.333-5.333s2.393-5.333 5.333-5.333c2.941 0 5.333 2.393 5.333 5.333s-2.393 5.333-5.333 5.333z"></path>
</symbol>
<symbol id="icon-minus" viewBox="0 0 32 32">
<path fill="#0f73f6" style="fill: var(--color1, #0f73f6)" d="M30.84 17.16h-29.68c-0.64 0-1.16-0.52-1.16-1.16s0.52-1.16 1.16-1.16h29.68c0.64 0 1.16 0.52 1.16 1.16s-0.52 1.16-1.16 1.16z"></path>
</symbol>
<symbol id="icon-minus-m" viewBox="0 0 32 32">
<path fill="#0f73f6" style="fill: var(--color1, #0f73f6)" d="M6.667 14.667h18.667c0.736 0 1.333 0.597 1.333 1.333s-0.597 1.333-1.333 1.333h-18.667c-0.736 0-1.333-0.597-1.333-1.333s0.597-1.333 1.333-1.333z"></path>
</symbol>
<symbol id="icon-phone" viewBox="0 0 32 32">
<path fill="#0f73f6" style="fill: var(--color1, #0f73f6)" d="M27.572 22.272c-1.933-1.653-3.895-2.655-5.804-1.004l-1.14 0.998c-0.834 0.724-2.385 4.109-8.382-2.79-5.995-6.89-2.428-7.962-1.592-8.68l1.146-0.999c1.899-1.655 1.183-3.738-0.187-5.882l-0.827-1.299c-1.376-2.139-2.875-3.544-4.779-1.892l-1.029 0.899c-0.842 0.613-3.194 2.606-3.765 6.393-0.687 4.543 1.48 9.746 6.444 15.454 4.958 5.711 9.812 8.579 14.41 8.529 3.821-0.041 6.129-2.092 6.851-2.837l1.033-0.9c1.899-1.651 0.719-3.332-1.215-4.989l-1.163-1z"></path>
</symbol>
<symbol id="icon-planet" viewBox="0 0 32 32">
<path fill="#0f73f6" style="fill: var(--color1, #0f73f6)" d="M16.481 2.667v6.146c1.667-0.024 3.327-0.219 4.953-0.583-1.125-3.144-2.913-5.273-4.953-5.563zM22.672 15.501h-6.191v-5.734c1.768-0.023 3.529-0.233 5.253-0.626 0.599 2.068 0.914 4.208 0.939 6.361zM29.342 16.454h-5.716c-0.022 2.232-0.345 4.451-0.963 6.595 1.258 0.336 2.473 0.819 3.618 1.44 1.88-2.266 2.957-5.092 3.061-8.035zM21.434 23.725c-1.125 3.144-2.913 5.273-4.953 5.563v-6.146c1.667 0.023 3.327 0.219 4.953 0.583zM20.1 28.679c-0.119 0.039-0.239 0.074-0.36 0.109l-0.101 0.031c-0.066 0.020-0.133 0.040-0.2 0.059-0.019 0.005-0.039 0.010-0.058 0.014s-0.039 0.009-0.058 0.014c1.411-1.37 2.458-3.071 3.047-4.947 1.132 0.298 2.227 0.72 3.267 1.257-0.007 0.007-0.014 0.015-0.021 0.023s-0.013 0.015-0.020 0.022c-0.055 0.056-0.111 0.111-0.167 0.166l-0 0-0.094 0.092-0 0c-0.078 0.077-0.157 0.155-0.237 0.23-0.064 0.059-0.129 0.117-0.194 0.175l-0 0-0.086 0.076c-0.079 0.070-0.158 0.141-0.24 0.209-0.077 0.064-0.155 0.126-0.233 0.188l-0 0-0.020 0.016c-0.096 0.076-0.193 0.152-0.289 0.226-0.087 0.064-0.175 0.127-0.263 0.191-0.099 0.071-0.198 0.141-0.298 0.209-0.090 0.061-0.181 0.12-0.273 0.178-0.102 0.064-0.205 0.127-0.309 0.191-0.093 0.056-0.185 0.11-0.28 0.164-0.105 0.060-0.212 0.118-0.318 0.176-0.095 0.051-0.191 0.101-0.286 0.149-0.109 0.055-0.218 0.108-0.329 0.16-0.097 0.045-0.195 0.091-0.293 0.134-0.095 0.040-0.19 0.080-0.285 0.12l-0.054 0.023-0.010 0.004-0 0c-0.095 0.039-0.19 0.077-0.286 0.114-0.116 0.044-0.233 0.086-0.351 0.126l-0.021 0.007c-0.092 0.032-0.185 0.065-0.278 0.095zM21.733 22.815c-1.724-0.393-3.485-0.603-5.253-0.627v-5.735h6.191c-0.024 2.153-0.34 4.293-0.939 6.361zM26.281 7.465c-1.145 0.62-2.36 1.104-3.618 1.44 0.617 2.145 0.941 4.364 0.963 6.596h5.716c-0.104-2.943-1.18-5.769-3.061-8.035zM25.612 6.715c0.008 0.009 0.017 0.018 0.025 0.027-1.041 0.538-2.138 0.96-3.27 1.258-0.589-1.877-1.636-3.577-3.047-4.947 0.017 0.004 0.034 0.008 0.051 0.013h0c0.022 0.005 0.043 0.010 0.065 0.016 0.091 0.024 0.181 0.051 0.272 0.077l0.027 0.008c0.122 0.035 0.242 0.071 0.361 0.109 0.101 0.033 0.2 0.067 0.299 0.102 0.117 0.041 0.235 0.082 0.35 0.126 0.099 0.038 0.197 0.077 0.295 0.117 0.038 0.016 0.075 0.031 0.113 0.047v0c0.076 0.031 0.152 0.063 0.228 0.096 0.098 0.043 0.195 0.087 0.291 0.133 0.113 0.052 0.224 0.106 0.333 0.161 0.048 0.024 0.095 0.049 0.143 0.074l0 0c0.048 0.025 0.095 0.050 0.143 0.074 0.108 0.058 0.215 0.117 0.321 0.178 0.093 0.053 0.186 0.107 0.278 0.162 0.105 0.063 0.208 0.128 0.311 0.194 0.091 0.058 0.181 0.116 0.27 0.176 0.101 0.068 0.202 0.14 0.301 0.211 0.088 0.063 0.175 0.126 0.261 0.191 0.098 0.074 0.196 0.151 0.291 0.228l0.036 0.029v0c0.072 0.057 0.144 0.114 0.214 0.174 0.085 0.071 0.167 0.144 0.25 0.217v0l0.030 0.027c0.032 0.029 0.065 0.058 0.097 0.087l0.001 0.001c0.048 0.043 0.096 0.085 0.143 0.129 0.077 0.072 0.153 0.146 0.228 0.22v0l0.040 0.040 0.063 0.062c0.056 0.055 0.113 0.11 0.168 0.167l0.016 0.017zM2.667 15.501h5.716c0.022-2.232 0.345-4.45 0.962-6.596-1.258-0.336-2.473-0.819-3.618-1.44-1.88 2.266-2.957 5.092-3.061 8.035zM15.527 23.142v6.146c-2.040-0.29-3.828-2.419-4.953-5.563 1.627-0.364 3.287-0.56 4.953-0.583zM15.528 16.454h-6.191c0.024 2.153 0.34 4.293 0.939 6.361 1.724-0.393 3.484-0.603 5.253-0.627v-5.735zM10.574 8.23c1.125-3.144 2.914-5.273 4.953-5.563v6.146c-1.667-0.023-3.327-0.219-4.953-0.583zM15.528 9.766c-1.768-0.023-3.529-0.233-5.253-0.626-0.599 2.068-0.914 4.208-0.939 6.361h6.191v-5.735zM12.627 3.066c0.019-0.005 0.039-0.009 0.058-0.014-1.41 1.369-2.457 3.069-3.045 4.945-1.132-0.298-2.227-0.72-3.267-1.257 0.008-0.008 0.016-0.017 0.024-0.025 0.006-0.007 0.012-0.013 0.018-0.020 0.054-0.056 0.109-0.11 0.164-0.164h0l0.066-0.065 0.038-0.037c0.076-0.075 0.152-0.149 0.229-0.222 0.057-0.054 0.116-0.106 0.174-0.157l0.11-0.097c0.078-0.069 0.156-0.138 0.237-0.205 0.068-0.058 0.139-0.114 0.209-0.17v-0l0.044-0.035c0.039-0.030 0.077-0.060 0.115-0.090v0c0.058-0.046 0.115-0.091 0.174-0.135 0.087-0.064 0.175-0.127 0.264-0.191 0.099-0.071 0.198-0.141 0.298-0.209 0.090-0.061 0.181-0.12 0.273-0.179l0.039-0.024c0.089-0.056 0.179-0.112 0.269-0.167 0.092-0.056 0.186-0.111 0.281-0.164 0.105-0.060 0.211-0.119 0.318-0.176 0.095-0.051 0.191-0.101 0.286-0.149 0.109-0.055 0.218-0.108 0.328-0.16 0.097-0.045 0.194-0.091 0.293-0.134 0.092-0.039 0.185-0.078 0.278-0.118l0-0 0.060-0.025c0.099-0.041 0.197-0.080 0.297-0.118 0.105-0.040 0.212-0.078 0.318-0.115v0l0.031-0.011 0.024-0.008c0.092-0.032 0.183-0.064 0.277-0.094 0.12-0.038 0.239-0.073 0.358-0.108l0.078-0.023c0.074-0.022 0.148-0.043 0.223-0.063 0.019-0.005 0.039-0.010 0.058-0.014h0zM6.642 25.485l0.050 0.049c0.072 0.071 0.144 0.142 0.218 0.211 0.047 0.044 0.095 0.086 0.143 0.129 0.033 0.029 0.066 0.058 0.099 0.088l0.011 0.010 0 0c0.089 0.079 0.177 0.158 0.268 0.234 0.081 0.068 0.164 0.134 0.248 0.2l0.003 0.003c0.095 0.077 0.191 0.154 0.292 0.228 0.056 0.042 0.113 0.083 0.17 0.125l0 0 0.090 0.066c0.1 0.071 0.2 0.143 0.302 0.212 0.089 0.060 0.18 0.119 0.27 0.176 0.103 0.066 0.206 0.131 0.311 0.194 0.092 0.055 0.185 0.11 0.278 0.163 0.107 0.061 0.213 0.12 0.321 0.178 0.047 0.023 0.094 0.048 0.141 0.073l0 0c0.048 0.025 0.097 0.051 0.145 0.075 0.11 0.055 0.22 0.109 0.334 0.161 0.095 0.045 0.192 0.089 0.29 0.133 0.077 0.034 0.154 0.066 0.232 0.098l0.001 0c0.036 0.015 0.072 0.030 0.108 0.045 0.098 0.040 0.196 0.080 0.295 0.117 0.116 0.045 0.233 0.086 0.35 0.126l0.021 0.007h0c0.092 0.032 0.184 0.065 0.278 0.095 0.119 0.039 0.238 0.074 0.361 0.109l0.030 0.009c0.089 0.026 0.179 0.053 0.269 0.077 0.021 0.006 0.043 0.011 0.064 0.016h0c0.017 0.004 0.035 0.008 0.052 0.013-1.411-1.37-2.458-3.071-3.047-4.948-1.132 0.299-2.227 0.72-3.267 1.258 0.008 0.008 0.016 0.017 0.023 0.025l0.018 0.019c0.071 0.077 0.148 0.152 0.226 0.227l0.001 0.001zM9.345 23.050c-1.258 0.336-2.473 0.819-3.618 1.44-1.88-2.267-2.957-5.092-3.061-8.035h5.716c0.022 2.232 0.345 4.451 0.962 6.595z"></path>
</symbol>
<symbol id="icon-play" viewBox="0 0 32 32">
<path fill="#0f73f6" style="fill: var(--color1, #0f73f6)" d="M27.333 14.845c0.889 0.513 0.889 1.796 0 2.309l-16 9.238c-0.889 0.513-2-0.128-2-1.155v-18.475c0-1.026 1.111-1.668 2-1.155l16 9.238z"></path>
</symbol>
<symbol id="icon-plus" viewBox="0 0 32 32">
<path fill="#0f73f6" style="fill: var(--color1, #0f73f6)" d="M25.332 14.667h-8v-8c0-0.354-0.14-0.693-0.391-0.943s-0.589-0.391-0.943-0.391c-0.354 0-0.693 0.14-0.943 0.391s-0.391 0.589-0.391 0.943v8h-8c-0.354 0-0.693 0.14-0.943 0.391s-0.391 0.589-0.391 0.943c0 0.354 0.14 0.693 0.391 0.943s0.589 0.391 0.943 0.391h8v8c0 0.354 0.14 0.693 0.391 0.943s0.589 0.391 0.943 0.391 0.693-0.14 0.943-0.391c0.25-0.25 0.391-0.589 0.391-0.943v-8h8c0.354 0 0.693-0.14 0.943-0.391s0.391-0.589 0.391-0.943c0-0.354-0.141-0.693-0.391-0.943s-0.589-0.391-0.943-0.391z"></path>
</symbol>
<symbol id="icon-plus-m" viewBox="0 0 32 32">
<path fill="#0f73f6" style="fill: var(--color1, #0f73f6)" d="M25.333 14.667h-8v-8c0-0.354-0.141-0.693-0.391-0.943s-0.589-0.391-0.943-0.391c-0.354 0-0.693 0.14-0.943 0.391s-0.391 0.589-0.391 0.943v8h-8c-0.354 0-0.693 0.141-0.943 0.391s-0.391 0.589-0.391 0.943c0 0.354 0.14 0.693 0.391 0.943s0.589 0.391 0.943 0.391h8v8c0 0.354 0.141 0.693 0.391 0.943s0.589 0.391 0.943 0.391c0.354 0 0.693-0.141 0.943-0.391s0.391-0.589 0.391-0.943v-8h8c0.354 0 0.693-0.141 0.943-0.391s0.391-0.589 0.391-0.943c0-0.354-0.141-0.693-0.391-0.943s-0.589-0.391-0.943-0.391z"></path>
</symbol>
<symbol id="icon-scaling" viewBox="0 0 32 32">
<path fill="#0f73f6" style="fill: var(--color1, #0f73f6)" d="M7.875 2.667h16.25c1.38 0.003 2.704 0.552 3.68 1.528s1.526 2.299 1.528 3.68v16.25c-0.003 1.38-0.552 2.704-1.528 3.68s-2.299 1.526-3.68 1.528h-16.25c-1.381-0.003-2.704-0.552-3.68-1.528s-1.526-2.299-1.528-3.68v-16.25c0.003-1.381 0.552-2.704 1.528-3.68s2.299-1.526 3.68-1.528zM8.188 22.836c0 0.259 0.103 0.507 0.286 0.69s0.431 0.286 0.69 0.286h5.111c0.129 0.001 0.257-0.023 0.377-0.071s0.229-0.12 0.32-0.211c0.092-0.091 0.165-0.199 0.214-0.318s0.075-0.247 0.075-0.376c0-0.129-0.026-0.257-0.075-0.376s-0.123-0.227-0.214-0.318c-0.092-0.091-0.201-0.163-0.32-0.211s-0.248-0.073-0.377-0.071h-2.753l3.635-3.635c0.183-0.183 0.286-0.432 0.286-0.691s-0.103-0.507-0.286-0.691c-0.091-0.091-0.198-0.163-0.317-0.212s-0.246-0.074-0.374-0.074c-0.259 0-0.507 0.103-0.691 0.286l-3.635 3.636v-2.754c-0.003-0.257-0.107-0.503-0.29-0.684s-0.43-0.283-0.687-0.283c-0.257 0-0.504 0.102-0.687 0.283s-0.287 0.427-0.29 0.684v5.111zM23.813 9.164c-0-0.259-0.103-0.507-0.286-0.691s-0.431-0.286-0.69-0.286h-5.111c-0.129-0.001-0.257 0.023-0.377 0.071s-0.229 0.12-0.32 0.211-0.165 0.199-0.214 0.318c-0.050 0.119-0.075 0.247-0.075 0.376s0.026 0.257 0.075 0.376c0.050 0.119 0.123 0.227 0.214 0.318s0.201 0.163 0.32 0.211c0.12 0.048 0.248 0.073 0.377 0.071h2.754l-3.636 3.635c-0.183 0.183-0.286 0.432-0.286 0.691s0.103 0.507 0.286 0.691c0.183 0.183 0.432 0.286 0.691 0.286s0.508-0.103 0.691-0.286l3.635-3.636v2.754c0.003 0.257 0.107 0.503 0.29 0.684s0.43 0.283 0.687 0.283c0.257 0 0.504-0.101 0.687-0.283s0.287-0.427 0.29-0.684v-5.111z"></path>
</symbol>
<symbol id="icon-search" viewBox="0 0 32 32">
<path fill="#0f73f6" style="fill: var(--color1, #0f73f6)" d="M29.007 27.436l-7.583-7.583c1.469-1.814 2.353-4.12 2.353-6.631 0-5.82-4.736-10.555-10.556-10.555s-10.555 4.735-10.555 10.555c0 5.82 4.736 10.556 10.555 10.556 2.511 0 4.817-0.884 6.631-2.353l7.583 7.583c0.217 0.217 0.501 0.326 0.786 0.326s0.569-0.109 0.786-0.326c0.434-0.434 0.434-1.137-0-1.571zM13.222 21.555c-4.596 0-8.333-3.738-8.333-8.333s3.738-8.333 8.333-8.333c4.595 0 8.333 3.738 8.333 8.333s-3.738 8.333-8.333 8.333z"></path>
</symbol>
<symbol id="icon-star" viewBox="0 0 32 32">
<path fill="#0f73f6" style="fill: var(--color1, #0f73f6)" d="M16 0l3.592 11.056h11.625l-9.405 6.833 3.592 11.056-9.405-6.833-9.405 6.833 3.592-11.056-9.405-6.833h11.625l3.592-11.056z"></path>
</symbol>
<symbol id="icon-twitter-m" viewBox="0 0 41 32">
<path fill="#0f73f6" style="fill: var(--color1, #0f73f6)" d="M20.973 17.882l-1.603-5.647h1.294l0.927 3.924h0.047l1.023-3.924h1.108l1.020 3.932h0.049l0.927-3.932h1.294l-1.603 5.647h-1.154l-1.067-3.692h-0.044l-1.064 3.692h-1.154z"></path>
<path fill="#0f73f6" style="fill: var(--color1, #0f73f6)" d="M14.354 13.22v-0.984h4.6v0.984h-1.715v4.663h-1.171v-4.663h-1.715z"></path>
</symbol>
<symbol id="icon-twitter-s" viewBox="0 0 33 32">
<path fill="#0f73f6" style="fill: var(--color1, #0f73f6)" d="M14.828 16.289l-1.202-4.236h0.97l0.696 2.943h0.035l0.767-2.943h0.831l0.765 2.95h0.037l0.696-2.95h0.97l-1.202 4.236h-0.866l-0.8-2.77h-0.033l-0.798 2.77h-0.866z"></path>
<path fill="#0f73f6" style="fill: var(--color1, #0f73f6)" d="M9.863 12.792v-0.738h3.451v0.738h-1.286v3.498h-0.878v-3.498h-1.286z"></path>
</symbol>
<symbol id="icon-user" viewBox="0 0 32 32">
<path fill="#fff" style="fill: var(--color2, #fff)" d="M25.428 19.905c-1.452-1.452-3.181-2.527-5.067-3.178 2.020-1.391 3.347-3.72 3.347-6.352 0-4.25-3.458-7.708-7.708-7.708s-7.708 3.458-7.708 7.708c0 2.633 1.327 4.961 3.347 6.352-1.886 0.651-3.614 1.726-5.067 3.178-2.518 2.518-3.905 5.867-3.905 9.428h2.083c0-6.203 5.047-11.25 11.25-11.25s11.25 5.047 11.25 11.25h2.083c0-3.561-1.387-6.91-3.905-9.428zM16 16c-3.102 0-5.625-2.523-5.625-5.625s2.523-5.625 5.625-5.625c3.102 0 5.625 2.523 5.625 5.625s-2.523 5.625-5.625 5.625z"></path>
</symbol>
<symbol id="icon-arrow-down1" viewBox="0 0 33 32">
<path fill="none" stroke="#fff" style="stroke: var(--color2, #fff)" stroke-linejoin="round" stroke-linecap="square" stroke-miterlimit="10" stroke-width="4" d="M23.333 13.333l-6.667 6.667-6.667-6.667"></path>
</symbol>
</defs>
</svg>
