<svg aria-hidden="true" style="position: absolute; width: 0; height: 0; overflow: hidden;" version="1.1" xmlns="http://www.w3.org/2000/svg" xmlns:xlink="http://www.w3.org/1999/xlink">
<defs>
<symbol id="icon-location" viewBox="0 0 32 32">
<path fill="#0f73f6" style="fill: var(--color1, #0f73f6)" d="M16 0c-5.881 0-10.667 4.785-10.667 10.667 0 1.766 0.441 3.516 1.281 5.069l8.803 15.921c0.117 0.212 0.341 0.344 0.583 0.344s0.466-0.131 0.583-0.344l8.806-15.926c0.836-1.547 1.277-3.298 1.277-5.064 0-5.881-4.785-10.667-10.667-10.667zM16 16c-2.941 0-5.333-2.393-5.333-5.333s2.393-5.333 5.333-5.333c2.941 0 5.333 2.393 5.333 5.333s-2.393 5.333-5.333 5.333z" />
</symbol>
<symbol id="icon-cup" viewBox="0 0 32 32">
<path fill="#fff" style="fill: var(--color2, #fff)" d="M31.062 2.31h-4.106c0.015-0.455 0.023-0.912 0.023-1.372 0-0.518-0.42-0.938-0.937-0.938h-20.084c-0.518 0-0.938 0.42-0.938 0.938 0 0.46 0.008 0.917 0.023 1.372h-4.106c-0.518 0-0.938 0.42-0.938 0.938 0 4.201 1.098 8.164 3.091 11.16 1.97 2.962 4.595 4.66 7.431 4.826 0.643 0.699 1.322 1.27 2.030 1.705v4.167h-1.573c-1.901 0-3.448 1.547-3.448 3.448v1.573h-0.067c-0.518 0-0.938 0.42-0.938 0.937s0.42 0.938 0.938 0.938h17.071c0.518 0 0.937-0.42 0.937-0.938s-0.42-0.937-0.937-0.937h-0.067v-1.573c0-1.901-1.547-3.448-3.448-3.448h-1.573v-4.167c0.708-0.435 1.387-1.005 2.030-1.705 2.835-0.165 5.46-1.864 7.431-4.826 1.993-2.996 3.091-6.959 3.091-11.16 0-0.518-0.42-0.938-0.938-0.938zM4.652 13.368c-1.644-2.471-2.61-5.703-2.758-9.184h3.254c0.338 4.279 1.343 8.234 2.912 11.373 0.25 0.5 0.511 0.972 0.783 1.417-1.559-0.589-3.002-1.82-4.191-3.607zM22.594 28.552v1.573h-13.188v-1.573c0-0.867 0.706-1.573 1.573-1.573h10.041c0.867 0 1.573 0.706 1.573 1.573zM17.573 25.104h-3.146v-3.352c0.515 0.136 1.041 0.206 1.573 0.206s1.058-0.071 1.573-0.206v3.352zM18.153 19.521c-0.042 0.017-0.083 0.038-0.121 0.061-0.663 0.33-1.344 0.5-2.032 0.5s-1.369-0.171-2.031-0.5c-0.039-0.024-0.080-0.045-0.123-0.063-0.735-0.389-1.446-0.976-2.119-1.747-0.035-0.051-0.075-0.097-0.119-0.14-0.668-0.793-1.296-1.768-1.87-2.915-1.723-3.446-2.718-7.976-2.831-12.844h18.186c-0.113 4.868-1.109 9.399-2.831 12.844-0.574 1.147-1.202 2.123-1.869 2.915-0.044 0.042-0.085 0.089-0.12 0.14-0.673 0.771-1.384 1.358-2.119 1.747zM27.348 13.368c-1.189 1.787-2.632 3.018-4.191 3.607 0.271-0.445 0.533-0.917 0.783-1.417 1.57-3.139 2.574-7.095 2.912-11.373h3.254c-0.147 3.481-1.113 6.713-2.758 9.184z" />
</symbol>

<symbol id="icon-arrow-left"  viewBox="0 0 32 32">
<path d="M9 16.0001C9 15.7443 9.09775 15.4883 9.293 15.2931L19.293 5.29306C19.6838 4.90231 20.3165 4.90231 20.707 5.29306C21.0975 5.68381 21.0978 6.31656 20.707 6.70706L11.414 16.0001L20.707 25.2931C21.0978 25.6838 21.0978 26.3166 20.707 26.7071C20.3163 27.0976 19.6835 27.0978 19.293 26.7071L9.293 16.7071C9.09775 16.5118 9 16.2558 9 16.0001Z"/>
</symbol>

<symbol id="icon-arrow-left-small" viewBox="0 0 16 16">
<path d="M4.125 7.75004C4.125 7.5902 4.18609 7.4302 4.30812 7.30816L10.5581 1.05816C10.8023 0.813945 11.1978 0.813945 11.4419 1.05816C11.6859 1.30238 11.6861 1.69785 11.4419 1.94191L5.63375 7.75004L11.4419 13.5582C11.6861 13.8024 11.6861 14.1979 11.4419 14.4419C11.1977 14.686 10.8022 14.6861 10.5581 14.4419L4.30812 8.19192C4.18609 8.06988 4.125 7.90988 4.125 7.75004Z"/>
</symbol>
<symbol id="icon-arrow-right" viewBox="0 0 32 32">
<path fill="#0f73f6" style="fill: var(--color1, #0f73f6)" d="M23.25 15.5c0-0.32-0.122-0.64-0.366-0.884l-12.5-12.5c-0.488-0.488-1.279-0.488-1.768 0s-0.488 1.279 0 1.768l11.616 11.616-11.616 11.616c-0.488 0.488-0.488 1.279 0 1.767s1.279 0.488 1.768 0l12.5-12.5c0.244-0.244 0.366-0.564 0.366-0.884z" />
</symbol>
<symbol id="icon-arrow-right-small" viewBox="0 0 16 16">
<path d="M11.625 7.75004C11.625 7.5902 11.5639 7.4302 11.4419 7.30816L5.19191 1.05816C4.9477 0.813945 4.55223 0.813945 4.30816 1.05816C4.0641 1.30238 4.06395 1.69785 4.30816 1.94191L10.1163 7.75004L4.30816 13.5582C4.06395 13.8024 4.06395 14.1979 4.30816 14.4419C4.55238 14.686 4.94785 14.6861 5.19191 14.4419L11.4419 8.19192C11.5639 8.06988 11.625 7.90988 11.625 7.75004Z"/>
</symbol>
<symbol id="icon-grid" viewBox="0 0 32 32">
<path d="M3 3v26h26v-26h-26zM27 15h-10v-10h10v10zM15 5v10h-10v-10h10zM5 17h10v10h-10v-10zM17 27v-10h10v10h-10z" />
</symbol>
<symbol id="icon-list" viewBox="0 0 32 32">
<path  d="M2 6h28v2h-28v-2z" />
<path  d="M2 15h28v2h-28v-2z" />
<path  d="M2 24h28v2h-28v-2z" />
</symbol>
<symbol id="icon-cart" viewBox="0 0 24 24">
<path d="M5.52616 8.66849C5.40575 8.66849 5.30814 8.7661 5.30814 8.88651V20.2237C5.30814 20.3442 5.40575 20.4417 5.52616 20.4417H17.7355C17.8559 20.4417 17.9535 20.3442 17.9535 20.2237V8.88651C17.9535 8.7661 17.8559 8.66849 17.7355 8.66849H5.52616ZM4 8.88651C4 8.04364 4.68328 7.36035 5.52616 7.36035H17.7355C18.5783 7.36035 19.2616 8.04364 19.2616 8.88651V20.2237C19.2616 21.0666 18.5783 21.7499 17.7355 21.7499H5.52616C4.68328 21.7499 4 21.0666 4 20.2237V8.88651Z"/>
<path d="M11.6302 4.30814C10.3057 4.30814 9.23197 5.38188 9.23197 6.7064V9.75872C9.23197 10.12 8.93913 10.4128 8.5779 10.4128C8.21667 10.4128 7.92383 10.12 7.92383 9.75872V6.7064C7.92383 4.65941 9.58324 3 11.6302 3C13.6772 3 15.3366 4.65941 15.3366 6.7064V9.75872C15.3366 10.12 15.0438 10.4128 14.6825 10.4128C14.3213 10.4128 14.0285 10.12 14.0285 9.75872V6.7064C14.0285 5.38188 12.9548 4.30814 11.6302 4.30814Z"/>
</symbol>
<symbol id="icon-minus" viewBox="0 0 32 32">
<path d="M30.84 17.16h-29.68c-0.64 0-1.16-0.52-1.16-1.16s0.52-1.16 1.16-1.16h29.68c0.64 0 1.16 0.52 1.16 1.16s-0.52 1.16-1.16 1.16z" />
</symbol>
<symbol id="icon-plus" viewBox="0 0 32 32">
<path d="M25.332 14.667h-8v-8c0-0.354-0.14-0.693-0.391-0.943s-0.589-0.391-0.943-0.391c-0.354 0-0.693 0.14-0.943 0.391s-0.391 0.589-0.391 0.943v8h-8c-0.354 0-0.693 0.14-0.943 0.391s-0.391 0.589-0.391 0.943c0 0.354 0.14 0.693 0.391 0.943s0.589 0.391 0.943 0.391h8v8c0 0.354 0.14 0.693 0.391 0.943s0.589 0.391 0.943 0.391 0.693-0.14 0.943-0.391c0.25-0.25 0.391-0.589 0.391-0.943v-8h8c0.354 0 0.693-0.14 0.943-0.391s0.391-0.589 0.391-0.943c0-0.354-0.141-0.693-0.391-0.943s-0.589-0.391-0.943-0.391z" />
</symbol>
<symbol id="icon-search" viewBox="0 0 32 32">
<path d="M29.007 27.436l-7.583-7.583c1.469-1.814 2.353-4.12 2.353-6.631 0-5.82-4.736-10.555-10.556-10.555s-10.555 4.735-10.555 10.555c0 5.82 4.736 10.556 10.555 10.556 2.511 0 4.817-0.884 6.631-2.353l7.583 7.583c0.217 0.217 0.501 0.326 0.786 0.326s0.569-0.109 0.786-0.326c0.434-0.434 0.434-1.137-0-1.571zM13.222 21.555c-4.596 0-8.333-3.738-8.333-8.333s3.738-8.333 8.333-8.333c4.595 0 8.333 3.738 8.333 8.333s-3.738 8.333-8.333 8.333z" />
</symbol>
<symbol id="icon-facebook"  viewBox="0 0 32 32">
<path d="M16.1953 22V10H20.9613C21.837 10 22.5674 10.1309 23.1525 10.3926C23.7376 10.6543 24.1774 11.0176 24.4719 11.4824C24.7663 11.9434 24.9136 12.4746 24.9136 13.0762C24.9136 13.5449 24.8206 13.957 24.6346 14.3125C24.4486 14.6641 24.1929 14.9531 23.8674 15.1797C23.5458 15.4023 23.1777 15.5605 22.7631 15.6543V15.7715C23.2164 15.791 23.6407 15.9199 24.0359 16.1582C24.4351 16.3965 24.7586 16.7305 25.0066 17.1602C25.2546 17.5859 25.3786 18.0938 25.3786 18.6836C25.3786 19.3203 25.2216 19.8887 24.9078 20.3887C24.5978 20.8848 24.1386 21.2773 23.5303 21.5664C22.9219 21.8555 22.1722 22 21.281 22H16.1953ZM18.712 19.9258H20.7637C21.465 19.9258 21.9765 19.791 22.2981 19.5215C22.6197 19.248 22.7805 18.8848 22.7805 18.4316C22.7805 18.0996 22.7011 17.8066 22.5422 17.5527C22.3834 17.2988 22.1567 17.0996 21.8622 16.9551C21.5716 16.8105 21.2248 16.7383 20.8218 16.7383H18.712V19.9258ZM18.712 15.0215H20.5777C20.9226 15.0215 21.2287 14.9609 21.496 14.8398C21.7673 14.7148 21.9804 14.5391 22.1354 14.3125C22.2942 14.0859 22.3737 13.8145 22.3737 13.498C22.3737 13.0645 22.2206 12.7148 21.9145 12.4492C21.6123 12.1836 21.1822 12.0508 20.6242 12.0508H18.712V15.0215Z"/>
<path d="M6.62109 22V10H14.5024V12.0918H9.13777V14.9512H13.9793V17.043H9.13777V22H6.62109Z"/>
</symbol>
<symbol id="icon-twitter" viewBox="0 0 32 32">
<path d="M16.568 22L13.1621 10H15.9113L17.8816 18.3379H17.9804L20.1542 10H22.5081L24.676 18.3555H24.7807L26.751 10H29.5002L26.0942 22H23.6415L21.3747 14.1543H21.2817L19.0208 22H16.568Z"/>
<path d="M2.50195 12.0918V10H12.278V12.0918H8.63381V22H6.14619V12.0918H2.50195Z" />
</symbol>
<symbol id="icon-instagram" viewBox="0 0 32 32">
<path d="M20.7752 13.9354C20.696 13.6578 20.5847 13.4125 20.4414 13.1996C20.2981 12.9829 20.1227 12.8004 19.9153 12.6521C19.7116 12.5 19.4778 12.384 19.2137 12.3042C18.9535 12.2243 18.665 12.1844 18.3481 12.1844C17.756 12.1844 17.2355 12.3327 16.7867 12.6293C16.3416 12.9259 15.9946 13.3574 15.7457 13.924C15.4968 14.4867 15.3723 15.1749 15.3723 15.9886C15.3723 16.8023 15.4949 17.4943 15.74 18.0646C15.9852 18.635 16.3322 19.0703 16.781 19.3707C17.2298 19.6673 17.7598 19.8156 18.3708 19.8156C18.9252 19.8156 19.3986 19.7167 19.7908 19.519C20.1868 19.3175 20.4886 19.0342 20.696 18.6692C20.9072 18.3042 21.0128 17.8726 21.0128 17.3745L21.5107 17.4487H18.5235V15.5894H23.372V17.0608C23.372 18.0875 23.157 18.9696 22.727 19.7072C22.2971 20.4411 21.7049 21.0076 20.9506 21.4068C20.1963 21.8023 19.3325 22 18.3595 22C17.2732 22 16.319 21.7586 15.4968 21.2757C14.6746 20.789 14.0334 20.0989 13.5732 19.2053C13.1169 18.308 12.8887 17.2433 12.8887 16.0114C12.8887 15.0646 13.0245 14.2205 13.296 13.4791C13.5713 12.7338 13.9561 12.1027 14.4501 11.5856C14.9442 11.0684 15.5194 10.6749 16.1757 10.4049C16.8319 10.135 17.5429 10 18.3085 10C18.9648 10 19.5758 10.097 20.1416 10.2909C20.7073 10.481 21.2089 10.751 21.6465 11.1008C22.0877 11.4506 22.4479 11.8669 22.727 12.3498C23.0061 12.8289 23.1853 13.3574 23.2645 13.9354H20.7752Z"/>
<path d="M11.0766 10.16V21.8406H8.62695V10.16H11.0766Z"/>
</symbol>
<symbol id="icon-user" viewBox="0 0 32 32">
<path d="M25.428 19.905c-1.452-1.452-3.181-2.527-5.067-3.178 2.020-1.391 3.347-3.72 3.347-6.352 0-4.25-3.458-7.708-7.708-7.708s-7.708 3.458-7.708 7.708c0 2.633 1.327 4.961 3.347 6.352-1.886 0.651-3.614 1.726-5.067 3.178-2.518 2.518-3.905 5.867-3.905 9.428h2.083c0-6.203 5.047-11.25 11.25-11.25s11.25 5.047 11.25 11.25h2.083c0-3.561-1.387-6.91-3.905-9.428zM16 16c-3.102 0-5.625-2.523-5.625-5.625s2.523-5.625 5.625-5.625c3.102 0 5.625 2.523 5.625 5.625s-2.523 5.625-5.625 5.625z" />
</symbol>

<symbol id="icon-ttt" viewBox="0 0 32 33" fill="none">
<path d="M0.9375 17.4746C1.45525 17.4746 1.875 17.0549 1.875 16.5371V15.5996H3.75V21.2246H2.8125C2.29475 21.2246 1.875 21.6444 1.875 22.1621C1.875 22.6799 2.29475 23.0996 2.8125 23.0996H6.5625C7.08025 23.0996 7.5 22.6799 7.5 22.1621C7.5 21.6444 7.08025 21.2246 6.5625 21.2246H5.625V15.5996H7.5V16.5371C7.5 17.0549 7.91975 17.4746 8.4375 17.4746C8.95525 17.4746 9.375 17.0549 9.375 16.5371V14.6621C9.375 14.1444 8.95525 13.7246 8.4375 13.7246H0.9375C0.41975 13.7246 0 14.1444 0 14.6621V16.5371C0 17.0549 0.41975 17.4746 0.9375 17.4746Z" fill="#0F73F6"/>
<path d="M10.375 11.8496C10.8928 11.8496 11.3125 11.4299 11.3125 10.9121V9.97461H14.125V21.2246H13.1875C12.6697 21.2246 12.25 21.6444 12.25 22.1621C12.25 22.6799 12.6697 23.0996 13.1875 23.0996H16.9375C17.4552 23.0996 17.875 22.6799 17.875 22.1621C17.875 21.6444 17.4552 21.2246 16.9375 21.2246H16V9.97461H18.8125V10.9121C18.8125 11.4299 19.2323 11.8496 19.75 11.8496C20.2677 11.8496 20.6875 11.4299 20.6875 10.9121V9.03711C20.6875 8.51936 20.2677 8.09961 19.75 8.09961H10.375C9.85725 8.09961 9.4375 8.51936 9.4375 9.03711V10.9121C9.4375 11.4299 9.85725 11.8496 10.375 11.8496Z" fill="#0F73F6"/>
<path d="M31.0625 2.47461H19.8125C19.2947 2.47461 18.875 2.89436 18.875 3.41211V5.28711C18.875 5.80486 19.2947 6.22461 19.8125 6.22461C20.3303 6.22461 20.75 5.80486 20.75 5.28711V4.34961H24.5V21.2246H23.5625C23.0448 21.2246 22.625 21.6444 22.625 22.1621C22.625 22.6799 23.0448 23.0996 23.5625 23.0996H27.3125C27.8302 23.0996 28.25 22.6799 28.25 22.1621C28.25 21.6444 27.8302 21.2246 27.3125 21.2246H26.375V4.34961H30.125V5.28711C30.125 5.80486 30.5448 6.22461 31.0625 6.22461C31.5802 6.22461 32 5.80486 32 5.28711V3.41211C32 2.89436 31.5802 2.47461 31.0625 2.47461Z" fill="#0F73F6"/>
<path d="M31.0625 24.9746C30.5448 24.9746 30.125 25.3944 30.125 25.9121V26.8496H1.875V25.9121C1.875 25.3944 1.45525 24.9746 0.9375 24.9746C0.41975 24.9746 0 25.3944 0 25.9121V29.6621C0 30.1799 0.41975 30.5996 0.9375 30.5996C1.45525 30.5996 1.875 30.1799 1.875 29.6621V28.7246H30.125V29.6621C30.125 30.1799 30.5448 30.5996 31.0625 30.5996C31.5802 30.5996 32 30.1799 32 29.6621V25.9121C32 25.3944 31.5802 24.9746 31.0625 24.9746Z" fill="#0F73F6"/>
</symbol>
<symbol id="icon-star" viewBox="0 0 32 32">
<path d="M16 0l3.592 11.056h11.625l-9.405 6.833 3.592 11.056-9.405-6.833-9.405 6.833 3.592-11.056-9.405-6.833h11.625l3.592-11.056z" />
</symbol>
<symbol id="icon-phone" viewBox="0 0 32 32">
<path fill="#0f73f6" style="fill: var(--color1, #0f73f6)" d="M27.572 22.272c-1.933-1.653-3.895-2.655-5.804-1.004l-1.14 0.998c-0.834 0.724-2.385 4.109-8.382-2.79-5.995-6.89-2.428-7.962-1.592-8.68l1.146-0.999c1.899-1.655 1.183-3.738-0.187-5.882l-0.827-1.299c-1.376-2.139-2.875-3.544-4.779-1.892l-1.029 0.899c-0.842 0.613-3.194 2.606-3.765 6.393-0.687 4.543 1.48 9.746 6.444 15.454 4.958 5.711 9.812 8.579 14.41 8.529 3.821-0.041 6.129-2.092 6.851-2.837l1.033-0.9c1.899-1.651 0.719-3.332-1.215-4.989l-1.163-1z" />
</symbol>
<symbol id="icon-email" viewBox="0 0 32 32">
<path fill="#0f73f6" style="fill: var(--color1, #0f73f6)" d="M18.674 19.606c-0.796 0.531-1.721 0.811-2.674 0.811s-1.878-0.281-2.674-0.811l-13.113-8.742c-0.073-0.049-0.144-0.099-0.213-0.151v14.325c0 1.642 1.333 2.946 2.946 2.946h26.108c1.642 0 2.946-1.333 2.946-2.946v-14.325c-0.070 0.052-0.141 0.103-0.214 0.151l-13.112 8.742z" />
<path fill="#0f73f6" style="fill: var(--color1, #0f73f6)" d="M1.253 9.304l13.113 8.742c0.496 0.331 1.065 0.496 1.634 0.496s1.138-0.165 1.634-0.496l13.113-8.742c0.785-0.523 1.253-1.398 1.253-2.342 0-1.624-1.321-2.945-2.945-2.945h-26.11c-1.624 0-2.945 1.321-2.945 2.946 0 0.943 0.469 1.818 1.253 2.341z" />
</symbol>
<symbol id="icon-clock" viewBox="0 0 32 32">
<path fill="#0f73f6" style="fill: var(--color1, #0f73f6)" d="M16 1.333c-2.901 0-5.736 0.86-8.148 2.472s-4.292 3.902-5.402 6.582c-1.11 2.68-1.401 5.629-0.835 8.474s1.963 5.458 4.014 7.51c2.051 2.051 4.665 3.448 7.51 4.014s5.794 0.275 8.474-0.835c2.68-1.11 4.971-2.99 6.582-5.402s2.472-5.248 2.472-8.148c-0.005-3.888-1.551-7.616-4.301-10.366s-6.477-4.296-10.366-4.301zM20.943 20.943c-0.25 0.25-0.589 0.39-0.943 0.39s-0.693-0.14-0.943-0.39l-4-4c-0.25-0.25-0.391-0.589-0.391-0.943v-8c0-0.354 0.141-0.693 0.391-0.943s0.589-0.391 0.943-0.391c0.354 0 0.693 0.14 0.943 0.391s0.391 0.589 0.391 0.943v7.448l3.609 3.609c0.25 0.25 0.39 0.589 0.39 0.943s-0.14 0.693-0.39 0.943z" />
</symbol>
<symbol id="icon-calendar" viewBox="0 0 32 32">
<path fill="#0f73f6" style="fill: var(--color1, #0f73f6)" d="M10 3.333c0-0.736-0.597-1.333-1.333-1.333s-1.333 0.597-1.333 1.333v1.333c0 0.736 0.597 1.333 1.333 1.333s1.333-0.597 1.333-1.333v-1.333z" />
<path fill="#0f73f6" style="fill: var(--color1, #0f73f6)" d="M24.667 3.333c0-0.736-0.597-1.333-1.333-1.333s-1.333 0.597-1.333 1.333v1.333c0 0.736 0.597 1.333 1.333 1.333s1.333-0.597 1.333-1.333v-1.333z" />
<path fill="#0f73f6" style="fill: var(--color1, #0f73f6)" d="M2.667 12v15.333c0 1.473 1.194 2.667 2.667 2.667h21.333c1.473 0 2.667-1.194 2.667-2.667v-15.333h-26.667zM10.667 25.333c0 0.737-0.597 1.333-1.333 1.333h-1.333c-0.737 0-1.333-0.597-1.333-1.333v-1.333c0-0.737 0.597-1.333 1.333-1.333h1.333c0.737 0 1.333 0.597 1.333 1.333v1.333zM10.667 18c0 0.737-0.597 1.333-1.333 1.333h-1.333c-0.737 0-1.333-0.597-1.333-1.333v-1.333c0-0.737 0.597-1.333 1.333-1.333h1.333c0.737 0 1.333 0.597 1.333 1.333v1.333zM18 25.333c0 0.737-0.597 1.333-1.333 1.333h-1.333c-0.737 0-1.333-0.597-1.333-1.333v-1.333c0-0.737 0.597-1.333 1.333-1.333h1.333c0.737 0 1.333 0.597 1.333 1.333v1.333zM18 18c0 0.737-0.597 1.333-1.333 1.333h-1.333c-0.737 0-1.333-0.597-1.333-1.333v-1.333c0-0.737 0.597-1.333 1.333-1.333h1.333c0.737 0 1.333 0.597 1.333 1.333v1.333zM25.333 25.333c0 0.737-0.597 1.333-1.333 1.333h-1.333c-0.737 0-1.333-0.597-1.333-1.333v-1.333c0-0.737 0.597-1.333 1.333-1.333h1.333c0.737 0 1.333 0.597 1.333 1.333v1.333zM25.333 18c0 0.737-0.597 1.333-1.333 1.333h-1.333c-0.737 0-1.333-0.597-1.333-1.333v-1.333c0-0.737 0.597-1.333 1.333-1.333h1.333c0.737 0 1.333 0.597 1.333 1.333v1.333z" />
<path fill="#0f73f6" style="fill: var(--color1, #0f73f6)" d="M29.333 10.667v-4c0-1.473-1.194-2.667-2.667-2.667h-0.667v0.667c0 1.471-1.196 2.667-2.667 2.667s-2.667-1.196-2.667-2.667v-0.667h-9.333v0.667c0 1.471-1.196 2.667-2.667 2.667s-2.667-1.196-2.667-2.667v-0.667h-0.667c-1.473 0-2.667 1.194-2.667 2.667v4h26.667z" />
</symbol>
<symbol id="icon-folder" viewBox="0 0 32 32">
<path fill="#0f73f6" style="fill: var(--color1, #0f73f6)" d="M30.451 13.233c-0.151-0.273-0.373-0.5-0.642-0.658s-0.576-0.241-0.888-0.24h-16.586c-0.559-0-1.103 0.181-1.551 0.517s-0.774 0.807-0.93 1.344l-3.283 11.255c-0.173 0.593-0.533 1.113-1.027 1.483s-1.094 0.571-1.712 0.571h20.858c0.617 0 1.218-0.2 1.712-0.571s0.854-0.891 1.027-1.484l3.151-10.805c0.073-0.232 0.1-0.477 0.077-0.719s-0.093-0.478-0.207-0.693z" />
<path fill="#0f73f6" style="fill: var(--color1, #0f73f6)" d="M5.45 25.124l3.285-11.255c0.229-0.778 0.703-1.461 1.352-1.948s1.437-0.751 2.248-0.753h14.837v-0.583c0-0.619-0.246-1.213-0.683-1.65s-1.031-0.684-1.65-0.684h-8.894c-0.174 0-0.346-0.039-0.503-0.113s-0.295-0.183-0.405-0.318l-1.147-1.41c-0.273-0.336-0.618-0.607-1.009-0.793s-0.819-0.282-1.252-0.283h-6.628c-0.619 0-1.213 0.246-1.65 0.684s-0.684 1.031-0.684 1.65v17.504c0 0.309 0.123 0.606 0.342 0.825s0.516 0.342 0.825 0.342c0.364-0.001 0.718-0.12 1.010-0.339s0.504-0.526 0.607-0.875z" />
</symbol>
<symbol id="icon-planet" viewBox="0 0 32 32">
<path fill="#0f73f6" style="fill: var(--color1, #0f73f6)" d="M16.481 2.667v6.146c1.667-0.024 3.327-0.219 4.953-0.583-1.125-3.144-2.913-5.273-4.953-5.563zM22.672 15.501h-6.191v-5.734c1.768-0.023 3.529-0.233 5.253-0.626 0.599 2.068 0.914 4.208 0.939 6.361zM29.342 16.454h-5.716c-0.022 2.232-0.345 4.451-0.963 6.595 1.258 0.336 2.473 0.819 3.618 1.44 1.88-2.266 2.957-5.092 3.061-8.035zM21.434 23.725c-1.125 3.144-2.913 5.273-4.953 5.563v-6.146c1.667 0.023 3.327 0.219 4.953 0.583zM20.1 28.679c-0.119 0.039-0.239 0.074-0.36 0.109l-0.101 0.031c-0.066 0.020-0.133 0.040-0.2 0.059-0.019 0.005-0.039 0.010-0.058 0.014s-0.039 0.009-0.058 0.014c1.411-1.37 2.458-3.071 3.047-4.947 1.132 0.298 2.227 0.72 3.267 1.257-0.007 0.007-0.014 0.015-0.021 0.023s-0.013 0.015-0.020 0.022c-0.055 0.056-0.111 0.111-0.167 0.166l-0 0-0.094 0.092-0 0c-0.078 0.077-0.157 0.155-0.237 0.23-0.064 0.059-0.129 0.117-0.194 0.175l-0 0-0.086 0.076c-0.079 0.070-0.158 0.141-0.24 0.209-0.077 0.064-0.155 0.126-0.233 0.188l-0 0-0.020 0.016c-0.096 0.076-0.193 0.152-0.289 0.226-0.087 0.064-0.175 0.127-0.263 0.191-0.099 0.071-0.198 0.141-0.298 0.209-0.090 0.061-0.181 0.12-0.273 0.178-0.102 0.064-0.205 0.127-0.309 0.191-0.093 0.056-0.185 0.11-0.28 0.164-0.105 0.060-0.212 0.118-0.318 0.176-0.095 0.051-0.191 0.101-0.286 0.149-0.109 0.055-0.218 0.108-0.329 0.16-0.097 0.045-0.195 0.091-0.293 0.134-0.095 0.040-0.19 0.080-0.285 0.12l-0.054 0.023-0.010 0.004-0 0c-0.095 0.039-0.19 0.077-0.286 0.114-0.116 0.044-0.233 0.086-0.351 0.126l-0.021 0.007c-0.092 0.032-0.185 0.065-0.278 0.095zM21.733 22.815c-1.724-0.393-3.485-0.603-5.253-0.627v-5.735h6.191c-0.024 2.153-0.34 4.293-0.939 6.361zM26.281 7.465c-1.145 0.62-2.36 1.104-3.618 1.44 0.617 2.145 0.941 4.364 0.963 6.596h5.716c-0.104-2.943-1.18-5.769-3.061-8.035zM25.612 6.715c0.008 0.009 0.017 0.018 0.025 0.027-1.041 0.538-2.138 0.96-3.27 1.258-0.589-1.877-1.636-3.577-3.047-4.947 0.017 0.004 0.034 0.008 0.051 0.013h0c0.022 0.005 0.043 0.010 0.065 0.016 0.091 0.024 0.181 0.051 0.272 0.077l0.027 0.008c0.122 0.035 0.242 0.071 0.361 0.109 0.101 0.033 0.2 0.067 0.299 0.102 0.117 0.041 0.235 0.082 0.35 0.126 0.099 0.038 0.197 0.077 0.295 0.117 0.038 0.016 0.075 0.031 0.113 0.047v0c0.076 0.031 0.152 0.063 0.228 0.096 0.098 0.043 0.195 0.087 0.291 0.133 0.113 0.052 0.224 0.106 0.333 0.161 0.048 0.024 0.095 0.049 0.143 0.074l0 0c0.048 0.025 0.095 0.050 0.143 0.074 0.108 0.058 0.215 0.117 0.321 0.178 0.093 0.053 0.186 0.107 0.278 0.162 0.105 0.063 0.208 0.128 0.311 0.194 0.091 0.058 0.181 0.116 0.27 0.176 0.101 0.068 0.202 0.14 0.301 0.211 0.088 0.063 0.175 0.126 0.261 0.191 0.098 0.074 0.196 0.151 0.291 0.228l0.036 0.029v0c0.072 0.057 0.144 0.114 0.214 0.174 0.085 0.071 0.167 0.144 0.25 0.217v0l0.030 0.027c0.032 0.029 0.065 0.058 0.097 0.087l0.001 0.001c0.048 0.043 0.096 0.085 0.143 0.129 0.077 0.072 0.153 0.146 0.228 0.22v0l0.040 0.040 0.063 0.062c0.056 0.055 0.113 0.11 0.168 0.167l0.016 0.017zM2.667 15.501h5.716c0.022-2.232 0.345-4.45 0.962-6.596-1.258-0.336-2.473-0.819-3.618-1.44-1.88 2.266-2.957 5.092-3.061 8.035zM15.527 23.142v6.146c-2.040-0.29-3.828-2.419-4.953-5.563 1.627-0.364 3.287-0.56 4.953-0.583zM15.528 16.454h-6.191c0.024 2.153 0.34 4.293 0.939 6.361 1.724-0.393 3.484-0.603 5.253-0.627v-5.735zM10.574 8.23c1.125-3.144 2.914-5.273 4.953-5.563v6.146c-1.667-0.023-3.327-0.219-4.953-0.583zM15.528 9.766c-1.768-0.023-3.529-0.233-5.253-0.626-0.599 2.068-0.914 4.208-0.939 6.361h6.191v-5.735zM12.627 3.066c0.019-0.005 0.039-0.009 0.058-0.014-1.41 1.369-2.457 3.069-3.045 4.945-1.132-0.298-2.227-0.72-3.267-1.257 0.008-0.008 0.016-0.017 0.024-0.025 0.006-0.007 0.012-0.013 0.018-0.020 0.054-0.056 0.109-0.11 0.164-0.164h0l0.066-0.065 0.038-0.037c0.076-0.075 0.152-0.149 0.229-0.222 0.057-0.054 0.116-0.106 0.174-0.157l0.11-0.097c0.078-0.069 0.156-0.138 0.237-0.205 0.068-0.058 0.139-0.114 0.209-0.17v-0l0.044-0.035c0.039-0.030 0.077-0.060 0.115-0.090v0c0.058-0.046 0.115-0.091 0.174-0.135 0.087-0.064 0.175-0.127 0.264-0.191 0.099-0.071 0.198-0.141 0.298-0.209 0.090-0.061 0.181-0.12 0.273-0.179l0.039-0.024c0.089-0.056 0.179-0.112 0.269-0.167 0.092-0.056 0.186-0.111 0.281-0.164 0.105-0.060 0.211-0.119 0.318-0.176 0.095-0.051 0.191-0.101 0.286-0.149 0.109-0.055 0.218-0.108 0.328-0.16 0.097-0.045 0.194-0.091 0.293-0.134 0.092-0.039 0.185-0.078 0.278-0.118l0-0 0.060-0.025c0.099-0.041 0.197-0.080 0.297-0.118 0.105-0.040 0.212-0.078 0.318-0.115v0l0.031-0.011 0.024-0.008c0.092-0.032 0.183-0.064 0.277-0.094 0.12-0.038 0.239-0.073 0.358-0.108l0.078-0.023c0.074-0.022 0.148-0.043 0.223-0.063 0.019-0.005 0.039-0.010 0.058-0.014h0zM6.642 25.485l0.050 0.049c0.072 0.071 0.144 0.142 0.218 0.211 0.047 0.044 0.095 0.086 0.143 0.129 0.033 0.029 0.066 0.058 0.099 0.088l0.011 0.010 0 0c0.089 0.079 0.177 0.158 0.268 0.234 0.081 0.068 0.164 0.134 0.248 0.2l0.003 0.003c0.095 0.077 0.191 0.154 0.292 0.228 0.056 0.042 0.113 0.083 0.17 0.125l0 0 0.090 0.066c0.1 0.071 0.2 0.143 0.302 0.212 0.089 0.060 0.18 0.119 0.27 0.176 0.103 0.066 0.206 0.131 0.311 0.194 0.092 0.055 0.185 0.11 0.278 0.163 0.107 0.061 0.213 0.12 0.321 0.178 0.047 0.023 0.094 0.048 0.141 0.073l0 0c0.048 0.025 0.097 0.051 0.145 0.075 0.11 0.055 0.22 0.109 0.334 0.161 0.095 0.045 0.192 0.089 0.29 0.133 0.077 0.034 0.154 0.066 0.232 0.098l0.001 0c0.036 0.015 0.072 0.030 0.108 0.045 0.098 0.040 0.196 0.080 0.295 0.117 0.116 0.045 0.233 0.086 0.35 0.126l0.021 0.007h0c0.092 0.032 0.184 0.065 0.278 0.095 0.119 0.039 0.238 0.074 0.361 0.109l0.030 0.009c0.089 0.026 0.179 0.053 0.269 0.077 0.021 0.006 0.043 0.011 0.064 0.016h0c0.017 0.004 0.035 0.008 0.052 0.013-1.411-1.37-2.458-3.071-3.047-4.948-1.132 0.299-2.227 0.72-3.267 1.258 0.008 0.008 0.016 0.017 0.023 0.025l0.018 0.019c0.071 0.077 0.148 0.152 0.226 0.227l0.001 0.001zM9.345 23.050c-1.258 0.336-2.473 0.819-3.618 1.44-1.88-2.267-2.957-5.092-3.061-8.035h5.716c0.022 2.232 0.345 4.451 0.962 6.595z" />
</symbol>
<symbol id="icon-arrow-down" viewBox="0 0 32 32">
<path fill="#0f73f6" style="fill: var(--color1, #0f73f6)" d="M15.75 23c-0.32 0-0.64-0.122-0.884-0.366l-12.5-12.5c-0.488-0.488-0.488-1.279 0-1.768s1.279-0.488 1.768 0l11.616 11.616 11.616-11.616c0.488-0.488 1.279-0.488 1.767 0s0.488 1.279 0 1.768l-12.5 12.5c-0.244 0.244-0.564 0.366-0.884 0.366z" />
</symbol>
<symbol id="icon-arrow-down-s" viewBox="0 0 16 16" fill="none">
<path d="M7.87504 11.5C7.7152 11.5 7.5552 11.4389 7.43316 11.3169L1.18316 5.06691C0.938945 4.8227 0.938945 4.42723 1.18316 4.18316C1.42738 3.9391 1.82285 3.93895 2.06691 4.18316L7.87504 9.99129L13.6832 4.18316C13.9274 3.93895 14.3229 3.93895 14.5669 4.18316C14.811 4.42738 14.8111 4.82285 14.5669 5.06691L8.31692 11.3169C8.19488 11.4389 8.03488 11.5 7.87504 11.5Z" fill="#0F73F6"/>
</symbol>
<symbol id="icon-arrow-up" viewBox="0 0 32 32">
<path fill="#0f73f6" style="fill: var(--color1, #0f73f6)" d="M15.75 8c-0.32 0-0.64 0.122-0.884 0.366l-12.5 12.5c-0.488 0.488-0.488 1.279 0 1.767s1.279 0.489 1.768 0l11.616-11.616 11.616 11.616c0.488 0.489 1.279 0.489 1.767 0s0.488-1.279 0-1.767l-12.5-12.5c-0.244-0.244-0.564-0.366-0.884-0.366z" />
</symbol>
<symbol id="icon-arrow-up-s" viewBox="0 0 16 16" fill="none">
<path d="M7.87504 3.99996C7.7152 3.99996 7.5552 4.06105 7.43316 4.18309L1.18316 10.4331C0.938945 10.6773 0.938945 11.0728 1.18316 11.3168C1.42738 11.5609 1.82285 11.5611 2.06691 11.3168L7.87504 5.50871L13.6832 11.3168C13.9274 11.5611 14.3229 11.5611 14.5669 11.3168C14.811 11.0726 14.8111 10.6771 14.5669 10.4331L8.31692 4.18309C8.19488 4.06105 8.03488 3.99996 7.87504 3.99996Z" fill="#0F73F6"/>
</symbol>
<symbol id="icon-check-m" viewBox="0 0 32 32">
<path fill="#fff" style="fill: var(--color2, #fff)" d="M31.531 4.718c-0.625-0.625-1.638-0.625-2.263 0l-19.169 19.169-7.368-7.368c-0.625-0.625-1.638-0.625-2.263 0s-0.625 1.638 0 2.263l8.5 8.5c0.625 0.625 1.638 0.624 2.263 0l20.3-20.3c0.625-0.625 0.625-1.638 0-2.263z" />
</symbol>
<symbol id="icon-check-s" viewBox="0 0 32 32">
<path fill="#fff" style="fill: var(--color2, #fff)" d="M23.929 10.24c-0.319-0.319-0.836-0.319-1.155 0l-9.788 9.788-3.762-3.762c-0.319-0.319-0.836-0.319-1.155 0s-0.319 0.836 0 1.155l4.34 4.34c0.319 0.319 0.837 0.319 1.155 0l10.366-10.366c0.319-0.319 0.319-0.836 0-1.155z" />
</symbol>

<symbol id="icon-scaling" viewBox="0 0 32 32">
<path fill="#0f73f6" style="fill: var(--color1, #0f73f6)" d="M7.875 2.667h16.25c1.38 0.003 2.704 0.552 3.68 1.528s1.526 2.299 1.528 3.68v16.25c-0.003 1.38-0.552 2.704-1.528 3.68s-2.299 1.526-3.68 1.528h-16.25c-1.381-0.003-2.704-0.552-3.68-1.528s-1.526-2.299-1.528-3.68v-16.25c0.003-1.381 0.552-2.704 1.528-3.68s2.299-1.526 3.68-1.528zM8.188 22.836c0 0.259 0.103 0.507 0.286 0.69s0.431 0.286 0.69 0.286h5.111c0.129 0.001 0.257-0.023 0.377-0.071s0.229-0.12 0.32-0.211c0.092-0.091 0.165-0.199 0.214-0.318s0.075-0.247 0.075-0.376c0-0.129-0.026-0.257-0.075-0.376s-0.123-0.227-0.214-0.318c-0.092-0.091-0.201-0.163-0.32-0.211s-0.248-0.073-0.377-0.071h-2.753l3.635-3.635c0.183-0.183 0.286-0.432 0.286-0.691s-0.103-0.507-0.286-0.691c-0.091-0.091-0.198-0.163-0.317-0.212s-0.246-0.074-0.374-0.074c-0.259 0-0.507 0.103-0.691 0.286l-3.635 3.636v-2.754c-0.003-0.257-0.107-0.503-0.29-0.684s-0.43-0.283-0.687-0.283c-0.257 0-0.504 0.102-0.687 0.283s-0.287 0.427-0.29 0.684v5.111zM23.813 9.164c-0-0.259-0.103-0.507-0.286-0.691s-0.431-0.286-0.69-0.286h-5.111c-0.129-0.001-0.257 0.023-0.377 0.071s-0.229 0.12-0.32 0.211-0.165 0.199-0.214 0.318c-0.050 0.119-0.075 0.247-0.075 0.376s0.026 0.257 0.075 0.376c0.050 0.119 0.123 0.227 0.214 0.318s0.201 0.163 0.32 0.211c0.12 0.048 0.248 0.073 0.377 0.071h2.754l-3.636 3.635c-0.183 0.183-0.286 0.432-0.286 0.691s0.103 0.507 0.286 0.691c0.183 0.183 0.432 0.286 0.691 0.286s0.508-0.103 0.691-0.286l3.635-3.636v2.754c0.003 0.257 0.107 0.503 0.29 0.684s0.43 0.283 0.687 0.283c0.257 0 0.504-0.101 0.687-0.283s0.287-0.427 0.29-0.684v-5.111z" />
</symbol>
<symbol id="icon-play" viewBox="0 0 32 32">
<path fill="#0f73f6" style="fill: var(--color1, #0f73f6)" d="M27.333 14.845c0.889 0.513 0.889 1.796 0 2.309l-16 9.238c-0.889 0.513-2-0.128-2-1.155v-18.475c0-1.026 1.111-1.668 2-1.155l16 9.238z" />
</symbol>
<symbol id="icon-close" viewBox="0 0 32 32">
<path fill="#0f73f6" style="fill: var(--color1, #0f73f6)" d="M4.242 27.090c0.077 0.077 0.169 0.139 0.27 0.181s0.21 0.063 0.319 0.063 0.218-0.022 0.319-0.063c0.101-0.042 0.193-0.103 0.27-0.181l10.242-10.242 10.246 10.242c0.156 0.156 0.369 0.244 0.59 0.244s0.433-0.088 0.59-0.244c0.156-0.156 0.244-0.368 0.244-0.59s-0.088-0.433-0.244-0.589l-10.246-10.242 10.242-10.246c0.156-0.156 0.244-0.368 0.244-0.59s-0.088-0.433-0.244-0.59c-0.156-0.156-0.368-0.244-0.59-0.244s-0.433 0.088-0.59 0.244l-10.242 10.246-10.246-10.242c-0.159-0.137-0.364-0.208-0.574-0.2s-0.409 0.095-0.557 0.243c-0.148 0.148-0.235 0.347-0.243 0.557s0.063 0.415 0.2 0.574l10.242 10.246-10.242 10.246c-0.155 0.156-0.242 0.367-0.242 0.587s0.087 0.431 0.242 0.587z" />
</symbol>
<symbol id="icon-letters" viewBox="0 0 32 32">
<path fill="#0f73f6" style="fill: var(--color1, #0f73f6)" d="M0.938 16.938c0.518 0 0.938-0.42 0.938-0.938v-0.938h1.875v5.625h-0.938c-0.518 0-0.938 0.42-0.938 0.938s0.42 0.938 0.938 0.938h3.75c0.518 0 0.938-0.42 0.938-0.938s-0.42-0.938-0.938-0.938h-0.938v-5.625h1.875v0.938c0 0.518 0.42 0.938 0.938 0.938s0.938-0.42 0.938-0.938v-1.875c0-0.518-0.42-0.938-0.938-0.938h-7.5c-0.518 0-0.938 0.42-0.938 0.938v1.875c0 0.518 0.42 0.938 0.938 0.938z" />
<path fill="#0f73f6" style="fill: var(--color1, #0f73f6)" d="M10.375 11.313c0.518 0 0.938-0.42 0.938-0.938v-0.938h2.813v11.25h-0.938c-0.518 0-0.938 0.42-0.938 0.938s0.42 0.938 0.938 0.938h3.75c0.518 0 0.938-0.42 0.938-0.938s-0.42-0.938-0.938-0.938h-0.938v-11.25h2.813v0.938c0 0.518 0.42 0.938 0.938 0.938s0.938-0.42 0.938-0.938v-1.875c0-0.518-0.42-0.938-0.938-0.938h-9.375c-0.518 0-0.938 0.42-0.938 0.938v1.875c0 0.518 0.42 0.938 0.938 0.938z" />
<path fill="#0f73f6" style="fill: var(--color1, #0f73f6)" d="M31.063 1.938h-11.25c-0.518 0-0.938 0.42-0.938 0.938v1.875c0 0.518 0.42 0.938 0.938 0.938s0.938-0.42 0.938-0.938v-0.938h3.75v16.875h-0.938c-0.518 0-0.938 0.42-0.938 0.938s0.42 0.938 0.938 0.938h3.75c0.518 0 0.938-0.42 0.938-0.938s-0.42-0.938-0.938-0.938h-0.938v-16.875h3.75v0.938c0 0.518 0.42 0.938 0.938 0.938s0.938-0.42 0.938-0.938v-1.875c0-0.518-0.42-0.938-0.938-0.938z" />
<path fill="#0f73f6" style="fill: var(--color1, #0f73f6)" d="M31.063 24.438c-0.518 0-0.938 0.42-0.938 0.938v0.938h-28.25v-0.938c0-0.518-0.42-0.938-0.938-0.938s-0.938 0.42-0.938 0.938v3.75c0 0.518 0.42 0.938 0.938 0.938s0.938-0.42 0.938-0.938v-0.938h28.25v0.938c0 0.518 0.42 0.938 0.938 0.938s0.938-0.42 0.938-0.938v-3.75c0-0.518-0.42-0.938-0.938-0.938z" />
</symbol>
<symbol id="icon-dot" viewBox="0 0 32 32">
<path fill="#0f73f6" style="fill: var(--color1, #0f73f6)" d="M32 16c0 8.837-7.163 16-16 16s-16-7.163-16-16c0-8.837 7.163-16 16-16s16 7.163 16 16z" />
</symbol>
<symbol id="icon-tools" viewBox="0 0 32 32">
<path fill="#0f73f6" style="fill: var(--color1, #0f73f6)" d="M23.39 16.671l0.785-0.785c0-0 0-0.001 0.001-0.001s0-0.001 0.001-0.001l2.771-2.771c0-0 0-0 0-0s0-0 0-0.001l2.771-2.771c0-0 0-0 0-0s0-0 0-0l1.522-1.522c0.489-0.489 0.758-1.138 0.758-1.829s-0.269-1.341-0.758-1.829l-4.402-4.402c-0.489-0.489-1.138-0.758-1.829-0.758s-1.341 0.269-1.829 0.758l-7.852 7.852-5.33-5.33c-0.892-0.892-2.011-1.527-3.234-1.837l-5.597-1.415c-0.32-0.081-0.659 0.012-0.893 0.246s-0.327 0.573-0.246 0.893l1.415 5.597c0.309 1.223 0.944 2.342 1.837 3.234l5.33 5.33-7.853 7.852c-0.489 0.489-0.758 1.138-0.758 1.829s0.269 1.341 0.758 1.829l4.402 4.402c0.489 0.489 1.138 0.758 1.829 0.758s1.341-0.269 1.829-0.758l4.292-4.292c0.001-0.001 0.001-0.001 0.002-0.002s0.001-0.001 0.002-0.002l3.556-3.556 7.219 7.219c0.926 0.926 2.143 1.389 3.359 1.389s2.433-0.463 3.359-1.389c1.852-1.852 1.852-4.866 0-6.718l-7.219-7.219zM3.261 6.305l-1.030-4.074 4.074 1.030c0.896 0.226 1.714 0.691 2.368 1.345l0.739 0.739-4.067 4.067-0.739-0.739c-0.653-0.653-1.118-1.472-1.345-2.368zM6.671 10.738l4.067-4.067 3.265 3.265-4.067 4.067-3.265-3.265zM6.99 30.125c-0.19 0-0.369-0.074-0.504-0.209l-4.402-4.402c-0.135-0.134-0.209-0.313-0.209-0.504s0.074-0.369 0.209-0.504l22.423-22.423c0.134-0.135 0.313-0.209 0.504-0.209s0.369 0.074 0.504 0.209l4.402 4.402c0.134 0.134 0.209 0.313 0.209 0.504s-0.074 0.369-0.209 0.504l-0.859 0.859-2.86-2.86c-0.366-0.366-0.96-0.366-1.326 0s-0.366 0.96 0 1.326l2.86 2.86-1.446 1.446-1.474-1.474c-0.366-0.366-0.96-0.366-1.326 0s-0.366 0.96 0 1.326l1.474 1.474-1.446 1.446-2.86-2.86c-0.366-0.366-0.96-0.366-1.326 0s-0.366 0.96 0 1.326l2.86 2.86-1.446 1.446-1.474-1.474c-0.366-0.366-0.96-0.366-1.326 0s-0.366 0.96 0 1.326l1.474 1.474-1.421 1.421-2.86-2.86c-0.366-0.366-0.96-0.366-1.326 0s-0.366 0.96 0 1.326l2.86 2.86-1.446 1.446-1.474-1.474c-0.366-0.366-0.96-0.366-1.326 0s-0.366 0.96 0 1.326l1.474 1.474-1.446 1.446-2.86-2.86c-0.366-0.366-0.96-0.366-1.326 0s-0.366 0.96 0 1.326l2.86 2.86-1.446 1.446-1.474-1.474c-0.366-0.366-0.96-0.366-1.326 0s-0.366 0.96 0 1.326l1.474 1.474-0.859 0.86c-0.135 0.134-0.313 0.209-0.504 0.209zM18.653 21.408c0.001-0.001 0.003-0.003 0.004-0.004s0.003-0.003 0.004-0.004l2.742-2.742c0-0 0.001-0.001 0.001-0.001s0.001-0.001 0.001-0.001l0.659-0.659 3.973 3.973-4.067 4.067-3.973-3.973 0.656-0.656zM29.283 29.283c-1.121 1.121-2.945 1.121-4.067 0l-1.92-1.92 4.067-4.067 1.92 1.92c1.121 1.121 1.121 2.946-0 4.067z" />
</symbol>

</defs>
</svg>
