<svg width="56" height="56" viewBox="0 0 56 56" fill="none" xmlns="http://www.w3.org/2000/svg">
<rect width="56" height="56" rx="10" fill="#0F73F6"/>
<path d="M38.9472 22.9464C38.9472 16.9009 34.0463 12 28.0007 12C21.9552 12 17.0543 16.9009 17.0543 22.9464C15.4914 23.141 14.0137 24.1627 14.0137 26.5344V32.2509C14.0137 34.9266 15.8867 35.8997 17.6625 35.8997H19.4261C19.7619 35.8997 20.0342 35.6274 20.0342 35.2915V23.5181C20.0342 23.1822 19.7619 22.9099 19.4261 22.9099H18.2706C18.2706 17.5361 22.627 13.1798 28.0007 13.1798C33.3745 13.1798 37.7309 17.5361 37.7309 22.9099H36.5754C36.2396 22.9099 35.9673 23.1822 35.9673 23.5181V35.2733C35.9673 35.6091 36.2396 35.8814 36.5754 35.8814H37.7309C37.5606 40.0593 35.5538 41.0384 31.5462 41.2147V40.8073C31.5462 40.1355 31.0017 39.591 30.3299 39.591H26.5047C25.833 39.591 25.2885 40.1355 25.2885 40.8073V42.7837C25.2885 43.4555 25.833 44 26.5047 44H30.3421C31.0138 44 31.5583 43.4555 31.5583 42.7837V42.431C35.4139 42.2547 38.7465 41.458 38.9472 35.8449C40.5101 35.6503 41.9878 34.6287 41.9878 32.2569V26.5405C41.9878 24.1566 40.5161 23.141 38.9472 22.9464ZM18.8179 24.0836V34.6651H17.6321C16.732 34.6651 15.1995 34.3489 15.1995 32.2326V26.5162C15.1995 24.4181 16.7138 24.0836 17.6321 24.0836H18.8179ZM30.3421 41.8655V42.7898H26.5047V40.8134H30.3421V41.8655ZM40.7716 32.2509C40.7716 34.3489 39.2573 34.6834 38.339 34.6834H37.1836V24.1262H38.3694C39.2695 24.1262 40.802 24.4424 40.802 26.5587L40.7716 32.2509Z" fill="white"/>
</svg>
