<svg width="32" height="33" viewBox="0 0 32 33" fill="none" xmlns="http://www.w3.org/2000/svg">
<path d="M0.9375 17.4746C1.45525 17.4746 1.875 17.0549 1.875 16.5371V15.5996H3.75V21.2246H2.8125C2.29475 21.2246 1.875 21.6444 1.875 22.1621C1.875 22.6799 2.29475 23.0996 2.8125 23.0996H6.5625C7.08025 23.0996 7.5 22.6799 7.5 22.1621C7.5 21.6444 7.08025 21.2246 6.5625 21.2246H5.625V15.5996H7.5V16.5371C7.5 17.0549 7.91975 17.4746 8.4375 17.4746C8.95525 17.4746 9.375 17.0549 9.375 16.5371V14.6621C9.375 14.1444 8.95525 13.7246 8.4375 13.7246H0.9375C0.41975 13.7246 0 14.1444 0 14.6621V16.5371C0 17.0549 0.41975 17.4746 0.9375 17.4746Z" fill="#0F73F6"/>
<path d="M10.375 11.8496C10.8928 11.8496 11.3125 11.4299 11.3125 10.9121V9.97461H14.125V21.2246H13.1875C12.6697 21.2246 12.25 21.6444 12.25 22.1621C12.25 22.6799 12.6697 23.0996 13.1875 23.0996H16.9375C17.4552 23.0996 17.875 22.6799 17.875 22.1621C17.875 21.6444 17.4552 21.2246 16.9375 21.2246H16V9.97461H18.8125V10.9121C18.8125 11.4299 19.2323 11.8496 19.75 11.8496C20.2677 11.8496 20.6875 11.4299 20.6875 10.9121V9.03711C20.6875 8.51936 20.2677 8.09961 19.75 8.09961H10.375C9.85725 8.09961 9.4375 8.51936 9.4375 9.03711V10.9121C9.4375 11.4299 9.85725 11.8496 10.375 11.8496Z" fill="#0F73F6"/>
<path d="M31.0625 2.47461H19.8125C19.2947 2.47461 18.875 2.89436 18.875 3.41211V5.28711C18.875 5.80486 19.2947 6.22461 19.8125 6.22461C20.3303 6.22461 20.75 5.80486 20.75 5.28711V4.34961H24.5V21.2246H23.5625C23.0448 21.2246 22.625 21.6444 22.625 22.1621C22.625 22.6799 23.0448 23.0996 23.5625 23.0996H27.3125C27.8302 23.0996 28.25 22.6799 28.25 22.1621C28.25 21.6444 27.8302 21.2246 27.3125 21.2246H26.375V4.34961H30.125V5.28711C30.125 5.80486 30.5448 6.22461 31.0625 6.22461C31.5802 6.22461 32 5.80486 32 5.28711V3.41211C32 2.89436 31.5802 2.47461 31.0625 2.47461Z" fill="#0F73F6"/>
<path d="M31.0625 24.9746C30.5448 24.9746 30.125 25.3944 30.125 25.9121V26.8496H1.875V25.9121C1.875 25.3944 1.45525 24.9746 0.9375 24.9746C0.41975 24.9746 0 25.3944 0 25.9121V29.6621C0 30.1799 0.41975 30.5996 0.9375 30.5996C1.45525 30.5996 1.875 30.1799 1.875 29.6621V28.7246H30.125V29.6621C30.125 30.1799 30.5448 30.5996 31.0625 30.5996C31.5802 30.5996 32 30.1799 32 29.6621V25.9121C32 25.3944 31.5802 24.9746 31.0625 24.9746Z" fill="#0F73F6"/>
</svg>
